<svg id="图层_1" data-name="图层 1" xmlns="http://www.w3.org/2000/svg" viewBox="0 0 660.1 395.8"><defs><style>.cls-1{fill:#eeb033;}.cls-2{fill:#252859;}</style></defs><title>logo_yellow</title><path class="cls-1" d="M129.23,171.85l4.58-12c15.26-40,44.24-74.41,83.8-99.49C258,34.75,305.9,21.22,356.19,21.22s98.2,13.53,138.58,39.13c39.55,25.08,68.53,59.48,83.79,99.49l4.58,12L356.19,323.52Z" transform="translate(-22.02 -21.22)"/><path class="cls-2" d="M144.12,162.69c98.78,0,182.57,55.22,212.07,131.77,29.5-76.55,113.29-131.77,212.07-131.77h.21C539.16,85.86,455.21,30.37,356.19,30.37s-183,55.49-212.28,132.33Z" transform="translate(-22.02 -21.22)"/><path class="cls-1" d="M432.37,101.43c28,13,49.83,29.33,67,54.32C485,130.82,465,112.2,435.74,96.12c30.59,14.23,54,32.26,72.12,60.33-15.93-29.5-38.31-49.29-68.6-65.86,35.41,16.54,59.68,37.32,77.68,67.18-15.35-30.35-38.07-53.4-74.2-73,38.8,18.13,64.84,41.2,83.77,74.87-17.36-36.82-43.32-61-79.82-80.83,40.13,18.87,69.26,43.51,90.08,83.75-17-39.3-43.65-67-85.83-89.91,43.5,20.61,71.54,46.63,91.27,83.12C512,93.26,440.38,49.34,356.88,49.34c-84.8,0-157.31,45.31-186.72,109.34C189,122.43,216,94.87,263,72.61c-45.59,24.72-70.14,53.51-85.87,90,20.06-38.82,48.29-64.16,90.11-83.83-41.41,22.46-64.61,48.26-79.91,81,17.51-31.29,42.07-55.48,83.87-75-37.53,20.4-59.49,43.76-74.27,73.13C213.69,130,237,108.2,274.7,90.59c-33.94,18.57-54.58,39.83-68.61,65.83,15.9-24.66,37.69-44.28,72.13-60.3-30.68,16.86-50.09,36-63.57,59.57,15.25-22.24,35.79-39.82,66.94-54.26C255.46,115.86,238,132,225.48,151c27.5-37.55,76.06-62.5,131.4-62.5,56.43,0,105.8,25.93,133,64.69C475.77,130.85,457,115,432.37,101.43Z" transform="translate(-22.02 -21.22)"/><path class="cls-1" d="M357.88,223c1.53,1,3,2,4.32,3.05.93-.48,1.86-1,2.84-1.42a51.9,51.9,0,0,0-3.85-4.22C360,221.23,358.92,222.09,357.88,223Z" transform="translate(-22.02 -21.22)"/><path class="cls-1" d="M356.25,216.11c-1.51,1.17-2.93,2.38-4.24,3.62,1.47.72,2.89,1.49,4.24,2.29,1.36-.8,2.77-1.57,4.25-2.29C359.18,218.49,357.77,217.28,356.25,216.11Z" transform="translate(-22.02 -21.22)"/><path class="cls-1" d="M371.39,235.17a38.65,38.65,0,0,0-2.34-4.75c-.37.25-.75.5-1.11.76A48.7,48.7,0,0,1,371.39,235.17Z" transform="translate(-22.02 -21.22)"/><path class="cls-1" d="M363.2,226.82a49.43,49.43,0,0,1,4.18,3.78l1.39-.64a43.7,43.7,0,0,0-3.3-4.8C364.69,225.7,363.93,226.25,363.2,226.82Z" transform="translate(-22.02 -21.22)"/><path class="cls-1" d="M345.13,230.6a47.93,47.93,0,0,1,4.18-3.78c-.73-.57-1.49-1.12-2.28-1.66a43.7,43.7,0,0,0-3.3,4.8Z" transform="translate(-22.02 -21.22)"/><path class="cls-1" d="M350.3,226c1.37-1.05,2.79-2.08,4.33-3.05-1.05-.89-2.16-1.75-3.31-2.59a50.28,50.28,0,0,0-3.86,4.22C348.44,225.06,349.37,225.55,350.3,226Z" transform="translate(-22.02 -21.22)"/><path class="cls-1" d="M356.25,224.41c-1.13,1-2.19,2.1-3.18,3.18,1.1.66,2.16,1.34,3.18,2,1-.71,2.08-1.39,3.19-2C358.45,226.51,357.39,225.44,356.25,224.41Z" transform="translate(-22.02 -21.22)"/><path class="cls-1" d="M360,238.12c-.48.52-.94,1-1.38,1.58.8.74,1.55,1.5,2.27,2.27.33-.24.65-.49,1-.72C361.34,240.2,360.72,239.16,360,238.12Z" transform="translate(-22.02 -21.22)"/><path class="cls-1" d="M363,235.15a44.26,44.26,0,0,1,3.11,3.38l.52-.3a40.09,40.09,0,0,0-2.31-4.24C363.88,234.37,363.44,234.76,363,235.15Z" transform="translate(-22.02 -21.22)"/><path class="cls-1" d="M352.47,238.12c-.68,1-1.3,2.08-1.87,3.13.33.23.66.48,1,.72.72-.77,1.48-1.53,2.28-2.27C353.42,239.17,353,238.64,352.47,238.12Z" transform="translate(-22.02 -21.22)"/><path class="cls-1" d="M351.89,228.94a44.42,44.42,0,0,0-2.85,3.73c.65.37,1.3.74,1.93,1.13,1-.92,2.1-1.83,3.25-2.7C353.48,230.36,352.7,229.64,351.89,228.94Z" transform="translate(-22.02 -21.22)"/><path class="cls-1" d="M343.45,230.42a40,40,0,0,0-2.33,4.75,46.85,46.85,0,0,1,3.45-4Z" transform="translate(-22.02 -21.22)"/><path class="cls-1" d="M360.61,228.94c-.8.7-1.58,1.42-2.32,2.16,1.15.87,2.22,1.78,3.25,2.7.62-.39,1.27-.76,1.93-1.13A44.57,44.57,0,0,0,360.61,228.94Z" transform="translate(-22.02 -21.22)"/><path class="cls-1" d="M356.25,242.85c-.44.65-.87,1.3-1.26,2,.42.38.86.76,1.26,1.15.4-.39.85-.77,1.27-1.15C357.12,244.15,356.7,243.5,356.25,242.85Z" transform="translate(-22.02 -21.22)"/><path class="cls-1" d="M337.08,230.18a49.38,49.38,0,0,1,6.7-7.12.18.18,0,0,1-.07-.05l.09,0a55.9,55.9,0,0,1,5.36-4.15c-.74-.49-1.5-1-2.29-1.45.94.37,1.82.77,2.72,1.16a63.78,63.78,0,0,1,5.56-3.32q-2.07-1.54-4.41-2.95A47.62,47.62,0,0,0,337.08,230.18Z" transform="translate(-22.02 -21.22)"/><path class="cls-1" d="M332.89,178.28c-11.41,6.81-19.34,15.51-23.86,24.48,6.46-8,16-15.26,28.61-20.14-11.37,6.78-19.2,15.49-23.56,24.44,6.3-7.94,15.71-15.11,28.14-19.94-11.3,6.75-19,15.44-23.23,24.35,6.14-7.83,15.38-14.93,27.63-19.68-11.19,6.68-18.78,15.32-22.83,24.15,6-7.69,15-14.65,27-19.32-11.07,6.61-18.52,15.19-22.42,23.92,5.82-7.53,14.67-14.36,26.43-18.93-10.95,6.54-18.25,15-22,23.69,5.18-6.76,12.88-12.92,23-17.34-.63-.41-1.28-.82-1.94-1.21.82.32,1.6.68,2.39,1,.8-.33,1.57-.69,2.4-1-.67.39-1.32.8-1.95,1.21,10.08,4.42,17.79,10.58,23,17.34-3.74-8.64-11-17.15-22-23.69,11.76,4.57,20.61,11.4,26.42,18.93-3.9-8.73-11.34-17.31-22.41-23.92,12,4.67,21.06,11.63,27,19.32-4.06-8.83-11.64-17.47-22.83-24.15,12.24,4.75,21.49,11.85,27.63,19.68-4.21-8.91-11.93-17.6-23.24-24.35,12.44,4.83,21.85,12,28.15,19.94-4.37-8.95-12.2-17.66-23.57-24.44,12.59,4.88,22.16,12.12,28.61,20.14-4.52-9-12.44-17.67-23.85-24.48A72.94,72.94,0,0,1,404,193.49c-8.5-15.34-26.67-26-47.73-26s-39.32,10.66-47.79,26.08A72.36,72.36,0,0,1,332.89,178.28Z" transform="translate(-22.02 -21.22)"/><path class="cls-1" d="M361.76,212.34c-1.55.94-3,1.92-4.41,2.95a60.93,60.93,0,0,1,5.56,3.32c.9-.39,1.79-.79,2.72-1.16-.78.47-1.54,1-2.29,1.45a56.05,56.05,0,0,1,5.37,4.15l.09,0-.08.05a49.47,49.47,0,0,1,6.71,7.12A47.55,47.55,0,0,0,361.76,212.34Z" transform="translate(-22.02 -21.22)"/><path class="cls-1" d="M356.25,233.24c-.78.88-1.5,1.76-2.18,2.66.75.55,1.47,1.13,2.18,1.71.71-.58,1.43-1.16,2.19-1.71C357.76,235,357,234.12,356.25,233.24Z" transform="translate(-22.02 -21.22)"/><path class="cls-1" d="M350.82,212.27c1.9.76,3.7,1.59,5.43,2.46,1.74-.87,3.54-1.7,5.43-2.46a57.36,57.36,0,0,0-5.43-4A58.67,58.67,0,0,0,350.82,212.27Z" transform="translate(-22.02 -21.22)"/><path class="cls-1" d="M349.49,235.15c-.42-.39-.86-.78-1.31-1.16a38.36,38.36,0,0,0-2.31,4.24l.51.3C347.35,237.38,348.37,236.25,349.49,235.15Z" transform="translate(-22.02 -21.22)"/><path class="cls-1" d="M398.48,154.25c14.7,6.22,25.4,13.83,33.62,23-6.83-10-16.52-18.93-31-27.14,16.34,6.95,27.89,15.47,36.66,25.67-7.35-11.14-17.8-21-33.67-30,18.1,7.78,30.56,17.32,40,28.83C436.18,162,424.81,151,407,141c20.18,8.71,33.71,19.46,43.84,32.59C442.38,159.48,430,147.11,410,136c22.59,9.78,37.32,22,48.25,37-9.08-16-22.44-29.83-44.65-42.18,25,11,40.88,24.7,52.6,41.83-9.87-18.41-24.41-33.84-49.19-47.5,28.88,12.68,46.14,28.81,58.88,49.31-21.08-38.56-66.58-65.25-119.34-65.25-53.35,0-99.28,27.29-120,66.55,15.41-25.33,34.92-39.74,59.69-50.61-21.87,12.06-37.82,26.36-49.22,47.56,13.76-20.08,31-32.4,52.62-41.89-18.67,10.38-33.7,22.92-44.7,42.31,12.85-17.61,28.95-28.78,48.31-37.16-16.94,9.43-30.55,20.89-40.55,37.26,11.78-15.09,26.18-24.71,43.52-32.2-15.32,8.62-27.74,18.81-37,33.58,10.58-13,23.64-21.85,39.94-28.86-13.7,7.76-24.95,17-33.45,29.74,9.73-11.24,21.7-19.13,36.44-25.41-14.16,8-23.93,17-30.89,27.08,8.31-9.17,19.06-16.79,33.52-22.91-11.66,6.66-20.16,13.94-26.49,22.07,15.94-17.39,40.62-28.55,68.34-28.55,28.16,0,53.17,11.52,69.09,29.37C419.32,168.8,410.68,161.22,398.48,154.25Z" transform="translate(-22.02 -21.22)"/><path class="cls-1" d="M41.44,181.37A73.77,73.77,0,0,1,31,187.46a17.75,17.75,0,0,1-5.74,1.22,11.42,11.42,0,0,1-3.19-.63,87.92,87.92,0,0,0,13-5.62,234.53,234.53,0,0,0,21.39-13.24A104.4,104.4,0,0,1,41.44,181.37Zm-9.21-22.7a3,3,0,0,1,1.74.84,7.47,7.47,0,0,0,2,1.18,1.89,1.89,0,0,1,1.15,2,7.8,7.8,0,0,1-.2,1.42q-.28,1.88-.76,18.21c0,.93-.38,1.39-1.16,1.39a1,1,0,0,1-1.1-1.13,24,24,0,0,1,.21-2.44q.15-2.57.14-15.7A10.5,10.5,0,0,0,32.23,158.67Zm18.69-8.49c.74.4,1.11.86,1.11,1.39a1.28,1.28,0,0,1-.62,1,9.94,9.94,0,0,0-1.23,3.14,46.59,46.59,0,0,0-.62,6.16q0,28.62.43,32.1a17.23,17.23,0,0,1,.37,2c0,.73-.27,1.1-.8,1.1l-2.71-6.67c.46,0,.69-.29.69-.88q0-2.49-.27-11Q47,170.85,47,164c0-2.79.17-6.26.53-10.4,0-.38-.18-.57-.53-.57a6.38,6.38,0,0,0-1,.16q-3.84,1.45-11.6,1.45a37.6,37.6,0,0,0,9.32-2.71,8.58,8.58,0,0,0,2.89-2,2.81,2.81,0,0,1,1.68-.54A5.82,5.82,0,0,1,50.92,150.18Zm-5.69,14.06v.81c0,.62-.64,1.41-1.92,2.38L39,170.74l.81-2.08c0-.13-.21-.19-.64-.19a7.66,7.66,0,0,1-3.88-.83A12.93,12.93,0,0,0,42,165.21a5.11,5.11,0,0,1,1.8-1Zm-4.95,21.35c3.72,3.18,5.91,4.78,6.57,4.78L49.56,197c-.39,0-.82-.37-1.31-1.09-.77-1.18-1.47-2.17-2.1-3Q43.9,190.32,40.28,185.59ZM60.7,155.53v1.19c0,.38.33.58,1,.58.22,0,.59-.27,1.12-.81a3.79,3.79,0,0,1,.64-.91c.57,0,.91.23,1,.69a2.11,2.11,0,0,0,1.41,1c.46,0,.7.33.7,1a2.31,2.31,0,0,1-.57,1.3,4,4,0,0,0-.72,2.53q0,21.78-2,28.21a19.59,19.59,0,0,1-5,9q-2.69,3-9.67,6.07,7.17-5.2,10.16-10a21.94,21.94,0,0,0,3.14-9.05q1.2-4.94,1.19-25.69,0-1.29-.81-1.29a2.12,2.12,0,0,0-1.59.82c-.37.41-.64.62-.8.62-.44,0-.77-.29-1-.85a9.88,9.88,0,0,1-1.33-2.69c0-.12.17-.36.49-.72a28.19,28.19,0,0,0,2.61-6.26Zm15.59,19.59c.53.23.81.52.81.87a1.23,1.23,0,0,1-.47.87,3.19,3.19,0,0,1-1.66.61,19.38,19.38,0,0,0-2.6.45,16.42,16.42,0,0,1-5,.9,6.27,6.27,0,0,1-3.25-.66,45.88,45.88,0,0,0,8.08-2.94,2.94,2.94,0,0,1,1.32-.54A9,9,0,0,1,76.29,175.12Zm4.62-31,1,1.37L83.6,148a4,4,0,0,1,.92,2.06c0,.42-.31.79-.94,1.11a5.07,5.07,0,0,0-2,4.11q0,23.26,1.07,34.9a91.28,91.28,0,0,0,2.3,12.8,17.48,17.48,0,0,1,.77,3.11c0,1-.35,1.45-1.06,1.45l-4.1-7.69c.36,0,.54-.27.54-.8,0-.26-.17-1.93-.51-5q-1.31-13.29-1.3-44.91c0-2,0-3,0-3q-2.37,0-8.2,2a5.42,5.42,0,0,1-1.78.4,11.42,11.42,0,0,1-4.89-1.07,57.38,57.38,0,0,0,5.6-1.42c4.24-1.32,7.34-2,9.27-2Zm-4.57,17.16c.5.12.76.32.76.63s-.33.47-1,.78q-2.67,1-7.69,5.25l.88-3.18c0-.13-.18-.2-.54-.2,0,0-.07.09-.14.27s-.26.27-.36.27a7.48,7.48,0,0,1-3.55-1.18,19.56,19.56,0,0,0,7.39-2.32,4,4,0,0,1,2.08-.77A4.65,4.65,0,0,1,76.34,161.29ZM70.6,190.85q9.2,9,9.93,9l4.1,7.69c-.58,0-1.25-.52-2-1.55A131.88,131.88,0,0,1,70.6,190.85Z" transform="translate(-22.02 -21.22)"/><path class="cls-1" d="M639,162.51v3a2.32,2.32,0,0,0,1.13,2.1c.93.72,1.39,1.4,1.39,2,0,.11-.18.3-.55.57a3.21,3.21,0,0,0-.67,1.53,82.83,82.83,0,0,1-5.56,15.93,42.81,42.81,0,0,1-6.34,9.54,33.24,33.24,0,0,1-8.57,6.39c1.12-1.41,2.42-2.86,3.87-4.37a41.86,41.86,0,0,0,7.14-9.22,59.69,59.69,0,0,0,4.84-11.48,36.7,36.7,0,0,0,1.7-10.84q0-5.35,4.61-7l15.59-6.27Zm31.68-11a9.48,9.48,0,0,0,3.58,1.19c1.25.31,1.88.88,1.88,1.74,0,.12-.12.31-.37.55a1.71,1.71,0,0,1-1.32.64,10.21,10.21,0,0,1-1.79-.28,15.51,15.51,0,0,0-3.48-.47A74.56,74.56,0,0,0,657.23,156a110.32,110.32,0,0,0-17.36,4.13,12.87,12.87,0,0,1-4,1.12c-1.63,0-3.88-.85-6.77-2.57a58.39,58.39,0,0,0,8.31-1.14q8.08-2,25.64-5a12.57,12.57,0,0,0,3.26-1,5.15,5.15,0,0,1,2.1-.53A5.6,5.6,0,0,1,670.66,151.49ZM647.1,196.84a14,14,0,0,0,3.64,4.33c1.14,1,1.71,1.91,1.71,2.68,0,1-.57,1.54-1.7,1.54-.4,0-1-.54-1.8-1.63a10.7,10.7,0,0,0-2.64-3,1.6,1.6,0,0,1-1-1.63,2.41,2.41,0,0,1,.24-.95,2.46,2.46,0,0,0,0-1.09c-.08-.36-.28-1.09-.6-2.17a10.82,10.82,0,0,1-.24-1.63,9.92,9.92,0,0,1,.43-2.45A16,16,0,0,0,647.1,196.84Zm24.48-10.24c1.17,1.07,1.76,1.85,1.76,2.35,0,.76-.3,1.2-.9,1.29a2,2,0,0,0-1.35,1.29q-6.4,9-11.68,10.15a37.82,37.82,0,0,0,7.12-9.45,6.62,6.62,0,0,0,.92-3.1q0-1.2-1-1.2a91,91,0,0,0-10.27,1.78,14.16,14.16,0,0,1-3.18.48,10.07,10.07,0,0,1-4.4-1.2q12.09-2.67,16.56-4.06a9.29,9.29,0,0,1,2.58-.58Q668.59,184.35,671.58,186.6ZM666.4,199a5.49,5.49,0,0,1,2.65.58,2.13,2.13,0,0,1,.88,1.16c-.06.9-.63,1.35-1.69,1.35a55.8,55.8,0,0,0-6.33.46,60.93,60.93,0,0,1-9.61.7,5.78,5.78,0,0,1-3.41-1A92.49,92.49,0,0,0,663,199.78,11.22,11.22,0,0,1,666.4,199Zm-9.68-58a3.75,3.75,0,0,1,3.12,1.46,4,4,0,0,1,1.12,2.56c0,.61-1,.92-3,.92q-2.62.32-6,.93c2.32-1.29,3.49-2.18,3.49-2.65q0-1-6.28-4.46A27,27,0,0,1,656.72,141Zm-2.91,19.8a5.32,5.32,0,0,1,3.08.88,14.57,14.57,0,0,0,2.5,1.37c.59.26.89.62.89,1.08a3.18,3.18,0,0,1-.47,1,12.36,12.36,0,0,0-.59,4.21L659,179c0,1.37.06,2.81.19,4.31.14,2.15.2,3.43.2,3.82,0,.85-.29,1.27-.88,1.27s-1.26-.81-2-2.45a7.13,7.13,0,0,1-1.28-2.84,1.39,1.39,0,0,1,.85-1.17c.43-.33.64-1.31.64-2.94l-.08-13.33C656.63,164.2,655.68,162.6,653.81,160.84ZM673,169.19v.95c0,.57-1,1.3-2.87,2.19l-6.42,3,1-1.29c0-.14-.25-.22-.74-.22a18.7,18.7,0,0,1-6.7-1,29.38,29.38,0,0,0,11-2.65,10.82,10.82,0,0,1,3-1.06Z" transform="translate(-22.02 -21.22)"/><path class="cls-1" d="M69.58,344.34a61.61,61.61,0,0,1,15.7,2.16l7.25-2L94.1,371.9h-.68c-1.18-11.37-7.85-26.67-23.15-26.67-16.18,0-18.44,19.91-18.44,34.13s2.26,34.13,18.44,34.13c15.3,0,22-15.3,23.15-26.68h.68l-1.57,27.36-7.25-2a61.61,61.61,0,0,1-15.7,2.16c-21.08,0-39.32-14.42-39.32-35S48.5,344.34,69.58,344.34Z" transform="translate(-22.02 -21.22)"/><path class="cls-1" d="M144.12,413.68V413c6.67,0,7.55-3.53,7.55-14V379.36H129.31V399c0,10.5.88,14,7.55,14v.68H98.51V413c10.6,0,10.6-5.49,10.6-17V362.68c0-11.86,0-17-10.6-17V345h38.35v.69c-6.67,0-7.55,3.53-7.55,14v18.63h22.36V359.75c0-10.5-.88-14-7.55-14V345h38.34v.69c-10.59,0-10.59,5.1-10.59,17V396c0,11.48,0,17,10.59,17v.68Z" transform="translate(-22.02 -21.22)"/><path class="cls-1" d="M183.44,413.68V413C194,413,194,407.51,194,396V362.68c0-11.86,0-17-10.59-17V345h41.39v.69c-10.6,0-10.6,5.1-10.6,17V396c0,11.48,0,17,10.6,17v.68Z" transform="translate(-22.02 -21.22)"/><path class="cls-1" d="M297.4,417l-54.63-61.3v28.84c0,13.43.4,28.44,15.3,28.44v.68H225.8V413c15.21,0,15.89-15,15.89-30.31V364.06c0-10.89-1.07-18.34-15.89-18.34V345h33.65l36.87,41.88V374.16c0-13.43-.39-28.44-15.3-28.44V345h32.27v.69c-15.2,0-15.89,15-15.89,30.3Z" transform="translate(-22.02 -21.22)"/><path class="cls-1" d="M349.47,389.75H327C323.19,399.66,320,413,333.59,413v.68H304V413c11.87,0,19-17.07,24.32-28.74l19.23-42.56,26.18,54.53c5.59,11.57,9.51,16.77,16.57,16.77v.68h-42V413c9.32,0,8.34-7.55,4.51-15.89Zm-20.1-5.39-2,4.42H349l-10.88-24Z" transform="translate(-22.02 -21.22)"/><path class="cls-1" d="M455.58,345.72c-13.34,0-13.63,3.83-13.63,17v38.15c0,9.71.59,12.07,7.85,12.07,17.26,0,27-13.14,30.69-30h.69L475,413.68H411.16V413c10.59,0,10.59-5.49,10.59-17V362.68c0-11.86,0-17-10.59-17V345h44.42Z" transform="translate(-22.02 -21.22)"/><path class="cls-1" d="M482.16,413.68V413c10.59,0,10.59-5.49,10.59-17V362.68c0-11.86,0-17-10.59-17V345h41.39v.69c-10.6,0-10.6,5.1-10.6,17V396c0,11.48,0,17,10.6,17v.68Z" transform="translate(-22.02 -21.22)"/><path class="cls-1" d="M585.43,374.36c4.12-9.32,12.16-28.64-4.32-28.64V345h29.62v.69c-11.77,0-18.93,17.06-24.23,28.73L567.18,417,541,362.49c-5.49-11.57-9.42-16.77-16.48-16.77V345H566.4v.69c-9.22,0-8.24,7.55-4.51,15.89L576.6,394Z" transform="translate(-22.02 -21.22)"/><path class="cls-1" d="M678.5,368.67h-1c-1.67-14.81-8.34-22.76-25.21-22.76H642.5v32.37c10.89,0,19.13-4.91,19.72-15.4h.68l-1.66,31.68h-.69c.49-9.51-7.16-15.59-18-15.59v24.81c0,7,1.47,9,5.89,9,19.61,0,29.71-11,32.76-28.34h1l-4.7,29.22H611.71V413c10.59,0,10.59-5.49,10.59-17V362.68c0-11.86,0-17-10.59-17V345H676Z" transform="translate(-22.02 -21.22)"/></svg>