<svg id="图层_1" data-name="图层 1" xmlns="http://www.w3.org/2000/svg" viewBox="0 0 764.88 493.82"><defs><style>.cls-1{fill:#f7b52c;}</style></defs><title>otherHalf</title><path class="cls-1" d="M108,69.06a91.66,91.66,0,0,0-8.72,12.37q-3.8,6.46-7,12.95t-6.11,12.84q-2.89,6.34-6,12a92.31,92.31,0,0,1-6.69,10.55,42.42,42.42,0,0,1-8.11,8.37,35.73,35.73,0,0,1-10.38,5.54,41.09,41.09,0,0,1-13.35,2A37.27,37.27,0,0,1,29.75,144a25.34,25.34,0,0,1-8.6-4.7,19.76,19.76,0,0,1-5.28-7,21.26,21.26,0,0,1-1.79-8.72,24.85,24.85,0,0,1,.23-3.42,16.29,16.29,0,0,1,.69-3l2.9.87a22.53,22.53,0,0,0-.58,2.58,18.69,18.69,0,0,0-.23,2.93,16.8,16.8,0,0,0,2,8.4,18.31,18.31,0,0,0,5.33,6A24,24,0,0,0,32,141.53a31.87,31.87,0,0,0,8.64,1.18A27.63,27.63,0,0,0,52,140.51a32.38,32.38,0,0,0,9-6,48.29,48.29,0,0,0,7.39-8.89q3.33-5.1,6.46-11t6.29-12.17Q84.25,96.18,87.94,90A122.42,122.42,0,0,1,96,78,66.33,66.33,0,0,1,106.1,67.49Zm40.68-13.62a46.84,46.84,0,0,1-7.85,4.08,55.7,55.7,0,0,1-8.43,2.64,66.73,66.73,0,0,1-8.93,1.39q-4.58.41-9.27.41-5.91,0-12.46-.61T88.69,62q-6.47-.69-12.49-1.3a108.16,108.16,0,0,0-10.89-.61,43.42,43.42,0,0,0-13,1.83,30.06,30.06,0,0,0-10,5.16,22.79,22.79,0,0,0-8.75,18.4,18.28,18.28,0,0,0,1.36,7.21,14.76,14.76,0,0,0,3.88,5.42,17.53,17.53,0,0,0,6.06,3.39,24.44,24.44,0,0,0,7.82,1.19,34.36,34.36,0,0,0,7.65-.9,38.14,38.14,0,0,0,7.77-2.7l1.21,2.38a35.6,35.6,0,0,1-8.95,3.59,40,40,0,0,1-10.23,1.34,28.78,28.78,0,0,1-8.57-1.28,21.88,21.88,0,0,1-7.33-3.85,18.68,18.68,0,0,1-5.13-6.49,20.64,20.64,0,0,1-1.92-9.19,26.4,26.4,0,0,1,1.57-9.36A24.84,24.84,0,0,1,33,68.91a26.59,26.59,0,0,1,6.37-5.47,39.91,39.91,0,0,1,7.85-3.74A46.81,46.81,0,0,1,56,57.55a62,62,0,0,1,9-.66,111.91,111.91,0,0,1,11.44.63q6.12.65,12.49,1.37t12.81,1.36q6.43.63,12.46.64c3,0,6-.13,8.92-.38a63.53,63.53,0,0,0,8.55-1.31,51.15,51.15,0,0,0,8-2.46A41.57,41.57,0,0,0,147,52.89Z" transform="translate(-14.08 -49.35)"/><path class="cls-1" d="M112.48,115.07a82.18,82.18,0,0,1,6.37-7.68,54,54,0,0,1,6.67-6,32.1,32.1,0,0,1,6.63-4A15.85,15.85,0,0,1,138.5,96a8.25,8.25,0,0,1,3.45.63,5.75,5.75,0,0,1,2.14,1.66,6.13,6.13,0,0,1,1.1,2.23,9.66,9.66,0,0,1,.32,2.43,13.23,13.23,0,0,1-.87,4.49,45.49,45.49,0,0,1-2.17,5q-1.31,2.61-2.81,5.34c-1,1.81-1.94,3.59-2.81,5.33a44.75,44.75,0,0,0-2.18,5.07,13.88,13.88,0,0,0-.87,4.61,5.21,5.21,0,0,0,.61,2.46,2.26,2.26,0,0,0,2.18,1.13,6.72,6.72,0,0,0,4.11-1.89,33.39,33.39,0,0,0,4.61-4.8c1.56-2,3.13-4.13,4.69-6.52s3-4.74,4.38-7l2.08,1.63a33,33,0,0,0-1.74,2.81q-1.09,1.94-2.57,4.34t-3.31,5a39.78,39.78,0,0,1-3.88,4.66,21.57,21.57,0,0,1-4.32,3.48,8.74,8.74,0,0,1-4.58,1.36,12.88,12.88,0,0,1-3-.35,6.94,6.94,0,0,1-2.72-1.27,6.71,6.71,0,0,1-2-2.52,9.32,9.32,0,0,1-.76-4,18.51,18.51,0,0,1,1-5.77,43.32,43.32,0,0,1,2.38-5.79,62.68,62.68,0,0,1,3.1-5.56q1.68-2.7,3.1-5.07c.94-1.59,1.74-3,2.37-4.32a7.77,7.77,0,0,0,1-3.28A2.07,2.07,0,0,0,138.15,99a13.77,13.77,0,0,0-7,2.17,42.16,42.16,0,0,0-7.39,5.65,86.28,86.28,0,0,0-7.3,7.8q-3.6,4.31-6.73,8.6L101,139.82l-5.28-2.09q7.36-16,14.17-31.73t14-31q1.09-2.39,2.58-5.16t3.18-5.56A60.79,60.79,0,0,1,133.28,59a40.23,40.23,0,0,1,4.06-4.52,20.36,20.36,0,0,1,4.32-3.16,9.45,9.45,0,0,1,4.49-1.18,5.36,5.36,0,0,1,4,1.42,5.46,5.46,0,0,1,1.42,4,16.33,16.33,0,0,1-1.45,6.18A49.64,49.64,0,0,1,146.21,69a95.78,95.78,0,0,1-5.65,7.88q-3.23,4.05-6.79,8.06t-7.21,7.73q-3.65,3.73-7,6.93Zm34-61.89a6.88,6.88,0,0,0-4.78,2,26.84,26.84,0,0,0-4.73,6.57q-2.55,4.59-5.85,11.94T123,91.77a147.67,147.67,0,0,0,11.16-12,131.39,131.39,0,0,0,8-10.64,59.81,59.81,0,0,0,4.78-8.37,14.88,14.88,0,0,0,1.59-5.3,2.3,2.3,0,0,0-.57-1.65A2,2,0,0,0,146.44,53.18Z" transform="translate(-14.08 -49.35)"/><path class="cls-1" d="M158.78,124.52c-.08.46-.13.92-.17,1.39s-.06.92-.06,1.39a12.73,12.73,0,0,0,.61,4,9.52,9.52,0,0,0,1.8,3.3,8.21,8.21,0,0,0,2.95,2.23,9.57,9.57,0,0,0,4,.81,24.6,24.6,0,0,0,14.66-5.15q7.07-5.16,14.08-16.35l2,1.74a69.58,69.58,0,0,1-7.76,10.75,46.17,46.17,0,0,1-7.86,7.1,29,29,0,0,1-7.67,3.94,23.48,23.48,0,0,1-7.19,1.22,21.42,21.42,0,0,1-5.27-.7,15.45,15.45,0,0,1-5.13-2.31,12.93,12.93,0,0,1-3.89-4.35,13.71,13.71,0,0,1-1.53-6.78,24.05,24.05,0,0,1,1.48-8.38,34.06,34.06,0,0,1,3.85-7.5,38.41,38.41,0,0,1,5.45-6.35,43.84,43.84,0,0,1,6.23-4.89,32.54,32.54,0,0,1,6.17-3.16,15.52,15.52,0,0,1,5.33-1.13,10.68,10.68,0,0,1,3.07.46,8.17,8.17,0,0,1,2.81,1.45,7.34,7.34,0,0,1,2,2.61,8.86,8.86,0,0,1,.78,3.88,12.17,12.17,0,0,1-1.42,5.77,19.52,19.52,0,0,1-3.79,5,28.9,28.9,0,0,1-5.51,4.12,42.67,42.67,0,0,1-6.55,3.1,49.57,49.57,0,0,1-6.89,2A33.8,33.8,0,0,1,158.78,124.52Zm.47-2.5a31.58,31.58,0,0,0,7.3-1.62,32.29,32.29,0,0,0,6.26-3,33.12,33.12,0,0,0,5.07-3.86,27.46,27.46,0,0,0,3.73-4.23,21.2,21.2,0,0,0,2.32-4.11,9.42,9.42,0,0,0,.81-3.54,3.57,3.57,0,0,0-.84-2.49,2.6,2.6,0,0,0-2-.93,11.75,11.75,0,0,0-5.73,1.83,30.57,30.57,0,0,0-6.38,5,48,48,0,0,0-6,7.56A43.33,43.33,0,0,0,159.25,122Z" transform="translate(-14.08 -49.35)"/><path class="cls-1" d="M312.29,64.77c0-.08-.31-.5-.81-1.28A10.42,10.42,0,0,0,308.93,61a18.22,18.22,0,0,0-4.81-2.4,22.56,22.56,0,0,0-7.53-1.08,37.75,37.75,0,0,0-14.17,2.81A56.3,56.3,0,0,0,269.12,68,72.92,72.92,0,0,0,257.44,79.4a84.76,84.76,0,0,0-9.3,13.91A76,76,0,0,0,242,108.55a56.76,56.76,0,0,0-2.2,15.39,27.84,27.84,0,0,0,1.65,9.73,21.28,21.28,0,0,0,12.31,12.72,26.56,26.56,0,0,0,10.14,1.83,35.06,35.06,0,0,0,9.94-1.45,47,47,0,0,0,9.65-4.06,57.14,57.14,0,0,0,9-6.23,75.19,75.19,0,0,0,8.09-7.88,74.22,74.22,0,0,0,6.84-9,72.9,72.9,0,0,0,5.27-9.76,57.26,57.26,0,0,0,3.39-10A42.71,42.71,0,0,0,317.28,90,26.93,26.93,0,0,0,316,81.17a18.08,18.08,0,0,0-3.71-6.4,15.35,15.35,0,0,0-5.65-3.89,19.2,19.2,0,0,0-7.16-1.3,22.05,22.05,0,0,0-7.54,1.36,29.68,29.68,0,0,0-7.21,3.83,38.52,38.52,0,0,0-6.43,5.82,40.78,40.78,0,0,0-5.19,7.33,38.73,38.73,0,0,0-3.45,8.46,34.06,34.06,0,0,0-1.24,9.13,23.21,23.21,0,0,0,.87,6.52,20.48,20.48,0,0,0,2.32,5.3,15.15,15.15,0,0,0,3.33,3.85,10.82,10.82,0,0,0,3.91,2.12l-.52,2.43a18.67,18.67,0,0,1-5.89-1.91,18.44,18.44,0,0,1-5.38-4.14,20.92,20.92,0,0,1-3.94-6.49,23.81,23.81,0,0,1-1.54-8.9,32.71,32.71,0,0,1,1.39-9.42A38.69,38.69,0,0,1,266.83,86a42.23,42.23,0,0,1,6-7.77,40.06,40.06,0,0,1,7.68-6.14,39.36,39.36,0,0,1,9-4.06,33.24,33.24,0,0,1,9.82-1.47,22,22,0,0,1,8.7,1.65,18.37,18.37,0,0,1,6.6,4.69,21,21,0,0,1,4.2,7.39A30,30,0,0,1,320.29,90a46.19,46.19,0,0,1-1.24,10.46,61.65,61.65,0,0,1-3.54,10.6A71.93,71.93,0,0,1,310,121.36a80,80,0,0,1-7.19,9.47,73.79,73.79,0,0,1-8.49,8.2,60.34,60.34,0,0,1-9.53,6.46,50.41,50.41,0,0,1-10.26,4.24,38.62,38.62,0,0,1-10.61,1.5,33,33,0,0,1-11.7-2.06,27.12,27.12,0,0,1-9.59-6,28.62,28.62,0,0,1-6.46-9.82,35.07,35.07,0,0,1-2.38-13.36,63.55,63.55,0,0,1,2.17-16.52,69.8,69.8,0,0,1,15.68-28.8A64.3,64.3,0,0,1,264,64a59.56,59.56,0,0,1,14.61-7,52.73,52.73,0,0,1,16.28-2.52,33.37,33.37,0,0,1,6.95.64,27.73,27.73,0,0,1,5.25,1.59A17.74,17.74,0,0,1,313.22,61a10.91,10.91,0,0,1,1.33,1.71l.47.81Z" transform="translate(-14.08 -49.35)"/><path class="cls-1" d="M335.53,89.92c.39-.66,1.08-1.8,2.06-3.42s2.14-3.42,3.48-5.39,2.78-4,4.34-5.94A43.51,43.51,0,0,1,350,70.1l2.61,1.56c-1.66,2.75-3.36,5.65-5.1,8.73s-3.46,6.25-5.16,9.53h18.89l-1.15,3h-19.3q-2.61,5.22-4.9,10.38t-4,9.85a78.32,78.32,0,0,0-2.72,8.78,30.72,30.72,0,0,0-1,7.1q0,3.77,1.74,5.41a6,6,0,0,0,4.29,1.66,9.31,9.31,0,0,0,4.64-1.37,26.43,26.43,0,0,0,4.66-3.44,44.1,44.1,0,0,0,4.35-4.58q2.06-2.49,3.65-4.7c1.06-1.46,1.94-2.75,2.63-3.85s1.13-1.79,1.28-2.06l2.15,1.63c-1.36,2.24-2.88,4.61-4.58,7.12a52.63,52.63,0,0,1-5.65,7,31.12,31.12,0,0,1-6.75,5.33,15.5,15.5,0,0,1-7.89,2.11,10.59,10.59,0,0,1-4.55-.92,9.38,9.38,0,0,1-3.27-2.58,11.3,11.3,0,0,1-2-3.91,17.54,17.54,0,0,1-.67-4.93,32.07,32.07,0,0,1,.55-4.93,64.77,64.77,0,0,1,1.89-7.56q1.33-4.38,3.56-9.82a119.07,119.07,0,0,1,5.65-11.71h-9.62l1.16-3Z" transform="translate(-14.08 -49.35)"/><path class="cls-1" d="M363.29,115.07a82.25,82.25,0,0,1,6.38-7.68,53.94,53.94,0,0,1,6.66-6,31.9,31.9,0,0,1,6.64-4A15.8,15.8,0,0,1,389.31,96a8.25,8.25,0,0,1,3.45.63,5.67,5.67,0,0,1,2.14,1.66,6.15,6.15,0,0,1,1.11,2.23,9.64,9.64,0,0,1,.31,2.43,13.23,13.23,0,0,1-.87,4.49,45.49,45.49,0,0,1-2.17,5c-.87,1.74-1.8,3.52-2.81,5.34s-1.94,3.59-2.81,5.33a44.62,44.62,0,0,0-2.17,5.07,13.88,13.88,0,0,0-.87,4.61,5.1,5.1,0,0,0,.61,2.46,2.25,2.25,0,0,0,2.17,1.13,6.7,6.7,0,0,0,4.11-1.89,32.86,32.86,0,0,0,4.61-4.8q2.36-2.94,4.69-6.52t4.38-7l2.09,1.63a28.5,28.5,0,0,0-1.74,2.81q-1.11,1.94-2.58,4.34t-3.3,5a40.85,40.85,0,0,1-3.89,4.66,21.8,21.8,0,0,1-4.31,3.48,8.79,8.79,0,0,1-4.58,1.36,13,13,0,0,1-3-.35,7,7,0,0,1-2.72-1.27,6.71,6.71,0,0,1-2-2.52,9.48,9.48,0,0,1-.75-4,18.78,18.78,0,0,1,.95-5.77,43.32,43.32,0,0,1,2.38-5.79c.95-1.91,2-3.77,3.1-5.56S387,110.57,388,109s1.74-3,2.38-4.32a7.89,7.89,0,0,0,.95-3.28A2.07,2.07,0,0,0,389,99a13.77,13.77,0,0,0-7,2.17,42.53,42.53,0,0,0-7.39,5.65,87.73,87.73,0,0,0-7.3,7.8q-3.6,4.31-6.72,8.6l-8.81,16.58-5.27-2.09q7.35-16,14.16-31.73t14-31q1.1-2.39,2.58-5.16c1-1.86,2-3.71,3.19-5.56A58.7,58.7,0,0,1,384.1,59a39.23,39.23,0,0,1,4-4.52,20.36,20.36,0,0,1,4.32-3.16A9.48,9.48,0,0,1,397,50.11a5.36,5.36,0,0,1,4,1.42,5.42,5.42,0,0,1,1.42,4,16.14,16.14,0,0,1-1.45,6.18A48.7,48.7,0,0,1,397,69a93.46,93.46,0,0,1-5.65,7.88q-3.21,4.05-6.78,8.06t-7.22,7.73q-3.64,3.73-7,6.93Zm34-61.89a6.88,6.88,0,0,0-4.78,2,26.85,26.85,0,0,0-4.72,6.57q-2.55,4.59-5.86,11.94t-8.05,18.08a145.69,145.69,0,0,0,11.15-12,129.07,129.07,0,0,0,8-10.64,58.81,58.81,0,0,0,4.78-8.37,14.74,14.74,0,0,0,1.6-5.3,2.3,2.3,0,0,0-.58-1.65A2,2,0,0,0,397.25,53.18Z" transform="translate(-14.08 -49.35)"/><path class="cls-1" d="M409.59,124.52c-.07.46-.13.92-.17,1.39s-.06.92-.06,1.39a13,13,0,0,0,.61,4,9.86,9.86,0,0,0,1.8,3.3,8.21,8.21,0,0,0,3,2.23,9.6,9.6,0,0,0,4,.81,24.6,24.6,0,0,0,14.66-5.15q7.08-5.16,14.09-16.35l2,1.74a68.93,68.93,0,0,1-7.77,10.75,46.13,46.13,0,0,1-7.85,7.1,29.21,29.21,0,0,1-7.68,3.94,23.43,23.43,0,0,1-7.19,1.22,21.42,21.42,0,0,1-5.27-.7,15.54,15.54,0,0,1-5.13-2.31,12.9,12.9,0,0,1-3.88-4.35,13.71,13.71,0,0,1-1.54-6.78,24.05,24.05,0,0,1,1.48-8.38,34.06,34.06,0,0,1,3.85-7.5,38.41,38.41,0,0,1,5.45-6.35,44.41,44.41,0,0,1,6.23-4.89,32.84,32.84,0,0,1,6.17-3.16,15.56,15.56,0,0,1,5.33-1.13,10.8,10.8,0,0,1,3.08.46,8.26,8.26,0,0,1,2.81,1.45,7.32,7.32,0,0,1,2,2.61,8.72,8.72,0,0,1,.79,3.88,12.28,12.28,0,0,1-1.42,5.77,19.57,19.57,0,0,1-3.8,5,28.82,28.82,0,0,1-5.5,4.12,43.12,43.12,0,0,1-6.55,3.1,49.7,49.7,0,0,1-6.9,2A33.8,33.8,0,0,1,409.59,124.52Zm.47-2.5a31.46,31.46,0,0,0,7.3-1.62,32,32,0,0,0,6.26-3,33.12,33.12,0,0,0,5.07-3.86,27.56,27.56,0,0,0,3.74-4.23,22.31,22.31,0,0,0,2.32-4.11,9.42,9.42,0,0,0,.81-3.54,3.57,3.57,0,0,0-.84-2.49,2.61,2.61,0,0,0-2-.93,11.81,11.81,0,0,0-5.74,1.83,30.28,30.28,0,0,0-6.37,5,46.86,46.86,0,0,0-6,7.56A43.36,43.36,0,0,0,410.06,122Z" transform="translate(-14.08 -49.35)"/><path class="cls-1" d="M484.06,117.74c-.58.85-1.26,2-2.05,3.44s-1.71,3-2.76,4.7-2.19,3.39-3.44,5.13a32.24,32.24,0,0,1-4.12,4.69,21.29,21.29,0,0,1-4.84,3.42,12,12,0,0,1-5.56,1.33,9.41,9.41,0,0,1-3.07-.49,6.79,6.79,0,0,1-2.55-1.54,7.22,7.22,0,0,1-1.74-2.57,9.38,9.38,0,0,1-.64-3.63,17.44,17.44,0,0,1,1.13-5.94,49.25,49.25,0,0,1,2.64-6c1-1.94,2-3.7,3-5.31a39,39,0,0,0,2.2-3.85,5.91,5.91,0,0,0,.7-2.49,2.07,2.07,0,0,0-.49-1.34,7.88,7.88,0,0,0-1.22-1.12L459.75,105a5.44,5.44,0,0,1-1.3-1.48c-1,1.54-1.95,3.11-3,4.69-.89,1.36-1.85,2.87-2.89,4.55s-2.05,3.33-3,5l-2.08-1.63L459.9,96.7l1.68.87-.38,1.1a5,5,0,0,0-.26,1.62,4.09,4.09,0,0,0,.2,1.25,2.63,2.63,0,0,0,.84,1.13c1.55,1.39,2.76,2.46,3.65,3.22a23.67,23.67,0,0,1,1.95,1.79,3.67,3.67,0,0,1,.75,1.1,3.58,3.58,0,0,1,.14,1.13,7.12,7.12,0,0,1-.23,1.68,16.6,16.6,0,0,1-.78,2.38c-.37.93-.87,2-1.51,3.27s-1.44,2.72-2.4,4.38c-.58,1-1.15,2-1.71,3s-1.06,2.06-1.51,3.1a22.7,22.7,0,0,0-1.07,3.13,12,12,0,0,0-.4,3,4.16,4.16,0,0,0,.31,1.77,2.61,2.61,0,0,0,.84,1,3.17,3.17,0,0,0,1.13.46,6.16,6.16,0,0,0,1.19.12,7.36,7.36,0,0,0,3.8-1.13,20.51,20.51,0,0,0,3.71-2.93,36.24,36.24,0,0,0,3.53-4.09c1.14-1.52,2.23-3.08,3.27-4.66s2-3.1,2.9-4.55,1.68-2.71,2.38-3.8Z" transform="translate(-14.08 -49.35)"/><path class="cls-1" d="M619.21,103.94c.54.08,1.29.21,2.26.38A18.71,18.71,0,0,1,628.1,107a12.43,12.43,0,0,1,3.22,3,15.59,15.59,0,0,1,2.34,4.69,21.83,21.83,0,0,1,.9,6.67,22.86,22.86,0,0,1-1.56,8.28,23.59,23.59,0,0,1-4.35,7.22A22.1,22.1,0,0,1,622,142a18.06,18.06,0,0,1-8.28,1.94,20.65,20.65,0,0,1-8-1.42,14.44,14.44,0,0,1-5.56-4,16.63,16.63,0,0,1-3.22-6.2,29.14,29.14,0,0,1-1-8,61.56,61.56,0,0,1,1.56-12.11,89.42,89.42,0,0,1,5.8-17q-6.66,2.72-13.19,4.89t-13,4.09a110.62,110.62,0,0,1-7.59,10.34,120.67,120.67,0,0,1-8.72,9.53,106,106,0,0,1-9.36,8.2,85.2,85.2,0,0,1-9.5,6.47,51.63,51.63,0,0,1-9.13,4.23,25.9,25.9,0,0,1-8.26,1.5,13.35,13.35,0,0,1-5.56-1,9.62,9.62,0,0,1-3.36-2.41,8,8,0,0,1-1.68-3.1,11.59,11.59,0,0,1-.47-3.07,10.55,10.55,0,0,1,.85-3.85,17.11,17.11,0,0,1,2.57-4.32,26.67,26.67,0,0,1,4.41-4.32,38.1,38.1,0,0,1,6.26-4q5.57-2.84,11.06-5.1t10.93-4.14c3.61-1.26,7.19-2.42,10.75-3.51s7.11-2.14,10.66-3.18c1.9-3.33,3.64-6.7,5.25-10.12s3-6.75,4.17-10a79.87,79.87,0,0,0,2.78-9.3,36.31,36.31,0,0,0,1-8.09,14.23,14.23,0,0,0-.89-5.1,11.39,11.39,0,0,0-2.55-4,11.63,11.63,0,0,0-4-2.58,14.71,14.71,0,0,0-5.33-.92,40.66,40.66,0,0,0-10.4,1.3,45.4,45.4,0,0,0-9.25,3.51,39.6,39.6,0,0,0-13.64,11.41,28.62,28.62,0,0,0-3.8,6.75,18.49,18.49,0,0,0-1.33,6.7,9.71,9.71,0,0,0,1.36,5.36,10.26,10.26,0,0,0,3.45,3.36,14.27,14.27,0,0,0,4.49,1.74,22.3,22.3,0,0,0,4.49.49,24,24,0,0,0,4.55-.41c1.45-.26,2.72-.55,3.82-.86a30.31,30.31,0,0,0,3.68-1.34L560,93.16a13.94,13.94,0,0,1-1.65.67c-.91.33-2.1.69-3.57,1.07a47.41,47.41,0,0,1-5.13,1,43.19,43.19,0,0,1-6.34.43,26.91,26.91,0,0,1-6.7-.81,15.65,15.65,0,0,1-5.5-2.55,12.26,12.26,0,0,1-3.71-4.49,15,15,0,0,1-1.36-6.69,18.94,18.94,0,0,1,2-8.58,31.93,31.93,0,0,1,5.54-7.74,45.18,45.18,0,0,1,8-6.57,62.12,62.12,0,0,1,9.56-5.1,59.12,59.12,0,0,1,10.14-3.31,44.47,44.47,0,0,1,9.76-1.16,24.65,24.65,0,0,1,7.74,1.16A16.91,16.91,0,0,1,585,54a15.63,15.63,0,0,1,4,5.71,20.69,20.69,0,0,1,1.42,7.94,39.15,39.15,0,0,1-.93,8.17A70.7,70.7,0,0,1,587,84.41a82.37,82.37,0,0,1-3.43,8.29,66.17,66.17,0,0,1-3.94,7.19q6.5-1.92,12.81-4T605.18,91a167.34,167.34,0,0,1,12.23-20.6,88.41,88.41,0,0,1,10.75-12.75,33.9,33.9,0,0,1,9-6.46,17.8,17.8,0,0,1,7-1.8,7.35,7.35,0,0,1,5.34,1.86,6.85,6.85,0,0,1,1.91,5.16,14.76,14.76,0,0,1-2.81,8A38.88,38.88,0,0,1,641,72.65a136.56,136.56,0,0,1-14.26,10.43A144.35,144.35,0,0,1,612.48,91q-3.3,7-5.44,12.63t-3.39,10.09a67.19,67.19,0,0,0-1.77,7.94,41.5,41.5,0,0,0-.52,6.14,16.69,16.69,0,0,0,.92,5.82,11.1,11.1,0,0,0,2.58,4.09,10.31,10.31,0,0,0,3.92,2.4,14.87,14.87,0,0,0,5,.79,15.7,15.7,0,0,0,6.81-1.54,18.24,18.24,0,0,0,5.65-4.2,20.53,20.53,0,0,0,5.27-13.85,18.21,18.21,0,0,0-.84-5.91,13,13,0,0,0-2.14-4,10.56,10.56,0,0,0-2.87-2.49,15.37,15.37,0,0,0-2.93-1.33,11.37,11.37,0,0,0-2.37-.53l-1.25-.08Zm-92.09,36.34a23.4,23.4,0,0,0,10.08-2.55,52.43,52.43,0,0,0,10.75-7,87.69,87.69,0,0,0,10.67-10.64,113.62,113.62,0,0,0,9.76-13.32l-3.59,1q-3.7,1.1-8.4,2.69t-9.57,3.62q-4.86,2-9.53,4.44a57.61,57.61,0,0,0-8.29,5.13,27.67,27.67,0,0,0-5.82,5.76,10.68,10.68,0,0,0-2.2,6.35,3.8,3.8,0,0,0,1.71,3.36A7.75,7.75,0,0,0,527.12,140.28ZM614.63,86.5a138.3,138.3,0,0,0,12.17-7.1,139.34,139.34,0,0,0,12.34-9.13,35.94,35.94,0,0,0,4.32-4.11,29.07,29.07,0,0,0,2.87-3.83A15.53,15.53,0,0,0,647.92,59a8.9,8.9,0,0,0,.49-2.69,4.14,4.14,0,0,0-1-2.84,4.08,4.08,0,0,0-3.22-1.16,10.24,10.24,0,0,0-4.89,1.36,25.58,25.58,0,0,0-5.13,3.77A47.81,47.81,0,0,0,629,63.12q-2.58,3.27-5.07,7.07t-4.84,8Q616.72,82.33,614.63,86.5Z" transform="translate(-14.08 -49.35)"/><path class="cls-1" d="M690.55,99.19c-.51,1-1.21,2.32-2.12,3.94s-1.88,3.41-2.93,5.36-2.09,4-3.16,6.12-2,4.2-2.89,6.23a59.56,59.56,0,0,0-2.15,5.73,15.86,15.86,0,0,0-.84,4.55c0,1.24.24,2,.73,2.41a3,3,0,0,0,1.88.55,7,7,0,0,0,3.45-1,18,18,0,0,0,3.48-2.55,34.31,34.31,0,0,0,3.33-3.53c1.08-1.31,2.09-2.64,3-4s1.8-2.61,2.58-3.83l2-3.1,2.09,1.63c-.66,1.23-1.43,2.57-2.32,4s-1.87,2.87-2.93,4.32a48.65,48.65,0,0,1-3.45,4.2,29.22,29.22,0,0,1-3.91,3.6,19.18,19.18,0,0,1-4.32,2.49,12,12,0,0,1-4.63.93,6.06,6.06,0,0,1-5.1-2.09,8.54,8.54,0,0,1-1.62-5.39c0-.15,0-.49,0-1a6.08,6.08,0,0,1,.15-1.25,50.3,50.3,0,0,1-5.54,6,28.67,28.67,0,0,1-5.09,3.76,18.71,18.71,0,0,1-4.76,2,19,19,0,0,1-4.37.55,11.88,11.88,0,0,1-4.15-.73,10.08,10.08,0,0,1-3.41-2.11,9.73,9.73,0,0,1-2.32-3.42,12.24,12.24,0,0,1-.84-4.7,23.55,23.55,0,0,1,1.47-7.56,34,34,0,0,1,5.25-9.19,43.64,43.64,0,0,1,6.63-7.12,39.18,39.18,0,0,1,6.79-4.67,28,28,0,0,1,6.34-2.52,22.55,22.55,0,0,1,5.39-.75c3.55,0,6.24.59,8.05,1.76a7.52,7.52,0,0,1,3.31,5.42c.77-1,1.58-1.93,2.43-2.89l2.61-3Zm-17.8,22c.5-.81,1.12-1.84,1.86-3.1s1.5-2.55,2.32-3.88,1.6-2.62,2.37-3.85,1.45-2.28,2-3.13a16.67,16.67,0,0,0-.14-1.68,6.67,6.67,0,0,0-.79-2.35,5.54,5.54,0,0,0-2-2.06,7.29,7.29,0,0,0-3.88-.87,17.36,17.36,0,0,0-4,.55,22.1,22.1,0,0,0-4.75,1.86,31,31,0,0,0-5.18,3.45,38.3,38.3,0,0,0-5.34,5.33,42.35,42.35,0,0,0-6.17,9.65,21.55,21.55,0,0,0-2.17,8.72,7.7,7.7,0,0,0,1.51,5.1,5.26,5.26,0,0,0,4.28,1.79,12.88,12.88,0,0,0,6-1.42,22.61,22.61,0,0,0,5.22-3.68,45.62,45.62,0,0,0,4.64-5Q670.66,123.89,672.75,121.21Z" transform="translate(-14.08 -49.35)"/><path class="cls-1" d="M738.88,53.41a5.62,5.62,0,0,1,3.39,1c.9.65,1.36,1.85,1.36,3.59a15.5,15.5,0,0,1-.73,4.29,48,48,0,0,1-2,5.41c-.83,2-1.8,4-2.92,6.15s-2.33,4.28-3.63,6.4-2.64,4.19-4,6.2-2.81,3.87-4.2,5.57q-4.18,5.14-7.22,8.69c-2,2.36-3.78,4.35-5.24,6s-2.71,3-3.71,4-1.89,1.91-2.67,2.64-1.48,1.4-2.14,2-1.34,1.27-2,2a18.38,18.38,0,0,0-.43,4.2c0,1.33,0,2.56,0,3.68,0,3.36.55,5.85,1.63,7.48a5.18,5.18,0,0,0,4.57,2.43,8.76,8.76,0,0,0,4-1,21.71,21.71,0,0,0,4-2.64,35.58,35.58,0,0,0,3.83-3.68q1.85-2.06,3.51-4.17t3-4.09l2.32-3.42,2.14,1.63c-.11.15-.49.76-1.13,1.82s-1.48,2.35-2.52,3.86-2.28,3.12-3.71,4.83a43.69,43.69,0,0,1-4.63,4.79,27.38,27.38,0,0,1-5.25,3.65,11.7,11.7,0,0,1-10.14.55,10,10,0,0,1-3.82-2.84,14.7,14.7,0,0,1-2.67-5,22.71,22.71,0,0,1-1-7.24,52.24,52.24,0,0,1,1.24-11,85.75,85.75,0,0,1,3.39-11.59,106.6,106.6,0,0,1,5-11.51q2.9-5.67,6.17-10.8a104.46,104.46,0,0,1,6.84-9.51,75.08,75.08,0,0,1,7-7.56,35.71,35.71,0,0,1,6.63-5A12,12,0,0,1,738.88,53.41Zm-34.72,58.76q4.94-5.1,9.54-10.34t8.63-10.38c2.69-3.41,5.15-6.74,7.39-10s4.15-6.27,5.74-9.13a61.5,61.5,0,0,0,3.71-7.82,18,18,0,0,0,1.33-6.09,2.68,2.68,0,0,0-.47-1.24,1.29,1.29,0,0,0-1.1-.79c-1.19,0-2.78.8-4.75,2.38a48.29,48.29,0,0,0-6.4,6.46,110.88,110.88,0,0,0-7.13,9.53,124.63,124.63,0,0,0-12.72,24.46A75.47,75.47,0,0,0,704.16,112.17Z" transform="translate(-14.08 -49.35)"/><path class="cls-1" d="M730.12,133.61a7.77,7.77,0,0,0,4.93,1.45,18.31,18.31,0,0,0,6.23-1,24.89,24.89,0,0,0,5.48-2.75,33.41,33.41,0,0,0,4.69-3.8,49.39,49.39,0,0,0,3.86-4.2c1.13-1.41,2.14-2.74,3-4s1.57-2.31,2.11-3.16h3.25c-.54.93-1.29,2.12-2.23,3.57s-2.07,3-3.36,4.6a60.15,60.15,0,0,1-4.38,4.9,34.78,34.78,0,0,1-5.36,4.43,29.91,29.91,0,0,1-6.23,3.22,19.71,19.71,0,0,1-7,1.25,13.27,13.27,0,0,1-3.16-.38,11.82,11.82,0,0,1-3-1.19q-1.92,4.69-3.74,9.22l-3.48,8.57-3,7.48-2.43,5.94c-.7,1.68-1.24,3-1.63,4s-.6,1.49-.63,1.53l-6.09-3q3-7,5.3-12.75t4.35-10.84q2-5,3.77-9.47t3.56-8.61a10.39,10.39,0,0,1-1.36-2.61,11.21,11.21,0,0,1-.55-2.08,2.75,2.75,0,0,1,.72-2.23,2.84,2.84,0,0,1,2.17-.9,3.13,3.13,0,0,1,2,.75c1.16-2.78,2.2-5.22,3.1-7.33l2.29-5.3q1.05-2.49,1.86-4.35,5-11.88,9.36-20.54t8-14.72a88.37,88.37,0,0,1,6.66-9.79,42.53,42.53,0,0,1,5.48-5.83,15.43,15.43,0,0,1,4.43-2.81,10.41,10.41,0,0,1,3.53-.72,7.81,7.81,0,0,1,4.32,1.13,4.71,4.71,0,0,1,2,3.85,18.63,18.63,0,0,1-1,6.72,65.55,65.55,0,0,1-3.24,8.61,98.52,98.52,0,0,1-4.78,9.18,99.8,99.8,0,0,1-5.57,8.52,152.26,152.26,0,0,1-9.76,12.11q-4.38,4.81-7.68,7.77a48.15,48.15,0,0,1-5.5,4.38c-1.47.94-2.55,1.59-3.25,1.94ZM775.33,56a4.22,4.22,0,0,0-.44-1.71,1.56,1.56,0,0,0-1.53-.72,6.76,6.76,0,0,0-1.8.31A9.35,9.35,0,0,0,769,55.21a21.94,21.94,0,0,0-3.33,3.07,45.59,45.59,0,0,0-4.14,5.45,97.94,97.94,0,0,0-5,8.46c-1.79,3.36-3.72,7.41-5.76,12.17q-2,4.52-4.7,11t-5.85,14a49.18,49.18,0,0,0,5.71-4.78q3-2.86,6-6.31t6-7.34q3-3.87,5.62-7.88t4.9-7.94c1.49-2.62,2.76-5.13,3.83-7.5a45.72,45.72,0,0,0,2.4-6.55A15.24,15.24,0,0,0,775.33,56Z" transform="translate(-14.08 -49.35)"/><path class="cls-1" d="M55.45,235.73Q53.85,237.5,52.2,239A30.45,30.45,0,0,1,49,241.61a17.16,17.16,0,0,1-3.14,1.75,7.7,7.7,0,0,1-3,.64,6.81,6.81,0,0,1-2.9-.6,6.37,6.37,0,0,1-2.22-1.71,7.74,7.74,0,0,1-1.42-2.63,10.8,10.8,0,0,1-.49-3.37,14.41,14.41,0,0,1,1-5.14,28.71,28.71,0,0,1,2.66-5.2,39.77,39.77,0,0,1,3.61-4.79A42.29,42.29,0,0,1,47,216.65l1.77,1.24-1.36,1.93c-.57.82-1.19,1.78-1.85,2.86s-1.32,2.25-2,3.51-1.28,2.55-1.83,3.87A28.73,28.73,0,0,0,40.38,234a14.8,14.8,0,0,0-.51,3.7,8.15,8.15,0,0,0,.14,1.58,4,4,0,0,0,.5,1.34,2.56,2.56,0,0,0,.92.9,3,3,0,0,0,1.48.33,7,7,0,0,0,3.15-.88,19.66,19.66,0,0,0,3.53-2.43,42.69,42.69,0,0,0,3.74-3.6c1.28-1.37,2.53-2.84,3.77-4.4s2.42-3.17,3.57-4.83,2.22-3.29,3.21-4.91l2.63-4.38c.88-1.47,1.75-2.9,2.63-4.3l1.93,1-.76,1.54c-.48,1-1.11,2.29-1.91,4s-1.72,3.57-2.77,5.75-2.18,4.5-3.35,6.95-2.38,5-3.6,7.55-2.41,5.08-3.56,7.52a52.7,52.7,0,0,0,10.51-7.6,59.66,59.66,0,0,0,8.08-9.21l1.52,1.15a49.34,49.34,0,0,1-8.88,10.09,77.63,77.63,0,0,1-12.79,8.86Q50.14,257,46.88,263a81.5,81.5,0,0,1-6.54,10.37,32.27,32.27,0,0,1-6.54,6.68,11.27,11.27,0,0,1-6.64,2.36,5,5,0,0,1-3.7-1.48A5.76,5.76,0,0,1,22,276.73,12,12,0,0,1,23,272a23.9,23.9,0,0,1,2.84-4.87,39.24,39.24,0,0,1,4.29-4.86,59.32,59.32,0,0,1,5.43-4.62q2.94-2.22,6.17-4.24t6.56-3.7c.57-1.2,1.19-2.47,1.85-3.8s1.3-2.62,1.93-3.87,1.24-2.42,1.83-3.53S55,236.47,55.45,235.73Zm-9,18a80.85,80.85,0,0,0-8.78,6.23,67.67,67.67,0,0,0-7,6.54,36.69,36.69,0,0,0-4.67,6.06,10,10,0,0,0-1.69,4.81,2.91,2.91,0,0,0,.76,2.1,2.62,2.62,0,0,0,2,.78,6.13,6.13,0,0,0,3.31-1.09,17.43,17.43,0,0,0,3.41-3,36.27,36.27,0,0,0,3.39-4.46q1.7-2.56,3.31-5.51t3.15-6.13Q45,256.87,46.41,253.7Z" transform="translate(-14.08 -49.35)"/><path class="cls-1" d="M96.9,233.72a1.12,1.12,0,0,0,.32,0h.37a9.07,9.07,0,0,0,2.1-.23,5.87,5.87,0,0,0,1.75-.72,7.54,7.54,0,0,0,1.54-1.29,13.34,13.34,0,0,0,1.44-2l1.48,1.15a12.31,12.31,0,0,1-4.07,3.9,9.37,9.37,0,0,1-4.44,1.11,6.28,6.28,0,0,1-1.52-.16,27.4,27.4,0,0,1-3.79,5A22.37,22.37,0,0,1,88,244a16.33,16.33,0,0,1-4.15,1.91,13.72,13.72,0,0,1-3.82.6,8.73,8.73,0,0,1-3.35-.64A7.62,7.62,0,0,1,74,244a8.47,8.47,0,0,1-1.72-2.84,10.48,10.48,0,0,1-.62-3.7,14.12,14.12,0,0,1,.66-4.19,23.09,23.09,0,0,1,1.79-4.24,27.87,27.87,0,0,1,2.65-4A33.47,33.47,0,0,1,80,221.38a35.52,35.52,0,0,1,3.66-3,23.25,23.25,0,0,1,3.78-2.22l1.32,1.73a29.92,29.92,0,0,0-4.42,3.94A35.72,35.72,0,0,0,80.3,227a32.12,32.12,0,0,0-3,5.9,16.58,16.58,0,0,0-1.17,5.94,6.28,6.28,0,0,0,1.15,4,4.25,4.25,0,0,0,3.5,1.41,9.19,9.19,0,0,0,3.57-.73,16.15,16.15,0,0,0,3.46-2,23.91,23.91,0,0,0,3.25-3,45.57,45.57,0,0,0,3-3.72,7.3,7.3,0,0,1-2.1-1.87,11.6,11.6,0,0,1-1.52-2.68,16.06,16.06,0,0,1-.93-3.22,20.71,20.71,0,0,1-.3-3.54,12.54,12.54,0,0,1,.45-3.41,10.1,10.1,0,0,1,1.25-2.82,6.69,6.69,0,0,1,1.87-1.91,4.2,4.2,0,0,1,2.35-.7,3.63,3.63,0,0,1,2,.6,4.73,4.73,0,0,1,1.52,1.64,8.79,8.79,0,0,1,1,2.49,13.79,13.79,0,0,1,.33,3.08,19.59,19.59,0,0,1-.21,2.72,24.9,24.9,0,0,1-.59,3,29.08,29.08,0,0,1-1,3A14.42,14.42,0,0,1,96.9,233.72Zm-5.6-10.24a17.44,17.44,0,0,0,.21,2.59,14.49,14.49,0,0,0,.66,2.71,11.71,11.71,0,0,0,1.15,2.45A5.4,5.4,0,0,0,95.05,233a22.16,22.16,0,0,0,1.25-2.94c.34-1,.63-2,.86-2.9a20.47,20.47,0,0,0,.5-2.61,19.55,19.55,0,0,0,.14-2.12,11.35,11.35,0,0,0-.21-2.26A8,8,0,0,0,97,218.4a3.42,3.42,0,0,0-.86-1.19,1.72,1.72,0,0,0-1.13-.43,2.42,2.42,0,0,0-1.53.55,4.82,4.82,0,0,0-1.19,1.48,8.41,8.41,0,0,0-.76,2.14A11.61,11.61,0,0,0,91.3,223.48Z" transform="translate(-14.08 -49.35)"/><path class="cls-1" d="M123.58,235.94q-1.89,2.22-3.74,4.09a30,30,0,0,1-3.68,3.21,17.66,17.66,0,0,1-3.64,2.09,9.34,9.34,0,0,1-3.66.76,6.92,6.92,0,0,1-2.82-.55,6.47,6.47,0,0,1-2.17-1.56,6.9,6.9,0,0,1-1.42-2.47,10.11,10.11,0,0,1-.5-3.27,15,15,0,0,1,1.26-5.84,33.53,33.53,0,0,1,3.16-5.84,47.51,47.51,0,0,1,4.24-5.38q2.33-2.55,4.42-4.53l1.77,1.24c-1,1.45-2.1,3.1-3.31,4.93s-2.38,3.74-3.46,5.7a45.47,45.47,0,0,0-2.73,5.88,15.48,15.48,0,0,0-1.11,5.44,6,6,0,0,0,.64,2.88,2.5,2.5,0,0,0,2.44,1.19,8.05,8.05,0,0,0,4.34-1.56,31,31,0,0,0,4.85-4.07,68.07,68.07,0,0,0,5-5.65q2.48-3.15,4.7-6.35c1.49-2.14,2.83-4.18,4.05-6.13s2.22-3.6,3-5l3,1.48q-2.38,4.69-4.59,8.74c-1.46,2.7-2.77,5.13-3.9,7.28s-2,4-2.72,5.61a10.54,10.54,0,0,0-1,3.78,1.72,1.72,0,0,0,.25.95.88.88,0,0,0,.78.37,5.48,5.48,0,0,0,3.35-1.32,25.42,25.42,0,0,0,3.7-3.41,53.27,53.27,0,0,0,3.66-4.5c1.2-1.63,2.27-3.16,3.23-4.58l1.48,1.15-1,1.68c-.52.85-1.16,1.83-1.93,2.92s-1.64,2.25-2.63,3.46a34,34,0,0,1-3.12,3.31,17.51,17.51,0,0,1-3.42,2.46,7.18,7.18,0,0,1-3.49,1,4.7,4.7,0,0,1-1.92-.37,4.26,4.26,0,0,1-1.41-1,4.47,4.47,0,0,1-.91-1.44,4.58,4.58,0,0,1-.33-1.72,9,9,0,0,1,.35-2.35A18.7,18.7,0,0,1,123.58,235.94Z" transform="translate(-14.08 -49.35)"/><path class="cls-1" d="M199.93,223.56a11.25,11.25,0,0,1-.61,3.6,26.1,26.1,0,0,1-1.56,3.66c-.63,1.22-1.31,2.42-2,3.6s-1.38,2.31-2,3.41a27.93,27.93,0,0,0-1.57,3.15,7.26,7.26,0,0,0-.61,2.73A1.53,1.53,0,0,0,192,245a1.39,1.39,0,0,0,.9.33,5.86,5.86,0,0,0,3.5-1.54,29.07,29.07,0,0,0,3.92-3.88c1.33-1.57,2.66-3.27,4-5.1s2.51-3.58,3.58-5.22l1.48,1.15c-.22.33-.62,1-1.19,1.95s-1.29,2.08-2.14,3.33-1.8,2.55-2.86,3.91a32.77,32.77,0,0,1-3.39,3.74,20.44,20.44,0,0,1-3.72,2.81,7.62,7.62,0,0,1-3.85,1.11,5.18,5.18,0,0,1-2-.37,4.46,4.46,0,0,1-1.54-1,5,5,0,0,1-1-1.55,4.69,4.69,0,0,1-.37-1.87,9.71,9.71,0,0,1,.72-3.47,32,32,0,0,1,1.79-3.85q1.06-2,2.34-4t2.35-3.81a36.22,36.22,0,0,0,1.78-3.35,6.45,6.45,0,0,0,.72-2.65,3.38,3.38,0,0,0-.67-2.14,2.32,2.32,0,0,0-1.92-.86,5.9,5.9,0,0,0-3,1.09,24.11,24.11,0,0,0-3.86,3.19,62.43,62.43,0,0,0-4.67,5.16q-2.53,3.06-5.49,7c-1.12,1.51-2.22,3-3.29,4.36-.47.61-.93,1.22-1.4,1.85s-.93,1.26-1.4,1.87l-1.31,1.77c-.41.56-.78,1.05-1.11,1.46l-3.62-1.48,4.81-6.62q1-1.4,2.1-3c.71-1.07,1.42-2.17,2.12-3.31s1.36-2.28,2-3.43,1.22-2.28,1.77-3.37a26,26,0,0,0,1.64-4.1,10.29,10.29,0,0,0,.45-2.61,1.9,1.9,0,0,0-.41-1.46,1.72,1.72,0,0,0-1.15-.35,3,3,0,0,0-1.79.81,15.27,15.27,0,0,0-2.07,2,31.85,31.85,0,0,0-2.16,2.84c-.73,1.06-1.42,2.1-2.08,3.14l-1.85,3c-.57.94-1.05,1.69-1.44,2.27l-1.48-1.15q2.1-3.3,3.81-6a47.94,47.94,0,0,1,3.29-4.71,16.67,16.67,0,0,1,3.08-3.06,5.3,5.3,0,0,1,3.19-1.09,4.28,4.28,0,0,1,3.22,1.46,5.26,5.26,0,0,1,1,1.75,6.92,6.92,0,0,1,.37,2.38,10.14,10.14,0,0,1-.25,2.22,32.24,32.24,0,0,1,3.38-2.92,23.83,23.83,0,0,1,2.87-1.83,11.94,11.94,0,0,1,2.43-1,8.18,8.18,0,0,1,2-.29,6.83,6.83,0,0,1,1.81.29,5.05,5.05,0,0,1,1.94,1.07A6.37,6.37,0,0,1,199.3,220,8.55,8.55,0,0,1,199.93,223.56Z" transform="translate(-14.08 -49.35)"/><path class="cls-1" d="M211,235.53c0,.33-.09.66-.12,1s0,.66,0,1a9,9,0,0,0,.43,2.82,6.82,6.82,0,0,0,1.28,2.34,5.88,5.88,0,0,0,2.09,1.58,6.7,6.7,0,0,0,2.86.58,17.41,17.41,0,0,0,10.4-3.66q5-3.66,10-11.59l1.4,1.23a49.24,49.24,0,0,1-5.51,7.63,32.83,32.83,0,0,1-5.57,5,20.94,20.94,0,0,1-5.45,2.8,16.73,16.73,0,0,1-5.1.86,15.45,15.45,0,0,1-3.74-.49,11.11,11.11,0,0,1-3.64-1.65,8.94,8.94,0,0,1-2.75-3.08,9.64,9.64,0,0,1-1.09-4.81,17,17,0,0,1,1.05-5.94,24.37,24.37,0,0,1,2.73-5.33,27.21,27.21,0,0,1,3.87-4.5,30.51,30.51,0,0,1,4.42-3.47,22.73,22.73,0,0,1,4.38-2.24,10.82,10.82,0,0,1,3.78-.81,7.64,7.64,0,0,1,2.18.33,6,6,0,0,1,2,1,5.18,5.18,0,0,1,1.44,1.85,6.32,6.32,0,0,1,.56,2.76,8.69,8.69,0,0,1-1,4.09,14,14,0,0,1-2.69,3.53,20.23,20.23,0,0,1-3.91,2.92,29.08,29.08,0,0,1-4.65,2.2,33.64,33.64,0,0,1-4.89,1.44A24.21,24.21,0,0,1,211,235.53Zm.33-1.77a22.37,22.37,0,0,0,5.18-1.15,22.77,22.77,0,0,0,4.44-2.12,23.28,23.28,0,0,0,3.6-2.73,19,19,0,0,0,2.65-3,14.84,14.84,0,0,0,1.65-2.92,6.7,6.7,0,0,0,.57-2.5,2.57,2.57,0,0,0-.59-1.77,1.85,1.85,0,0,0-1.42-.66,8.31,8.31,0,0,0-4.07,1.3,21.14,21.14,0,0,0-4.52,3.57,33.35,33.35,0,0,0-4.26,5.37A31.24,31.24,0,0,0,211.28,233.76Z" transform="translate(-14.08 -49.35)"/><path class="cls-1" d="M241,235.53a8.45,8.45,0,0,0-.12,1c0,.33,0,.66,0,1a9,9,0,0,0,.44,2.82,6.8,6.8,0,0,0,1.27,2.34,5.83,5.83,0,0,0,2.1,1.58,6.67,6.67,0,0,0,2.86.58,17.44,17.44,0,0,0,10.4-3.66q5-3.66,10-11.59l1.4,1.23a49.91,49.91,0,0,1-5.51,7.63,33.21,33.21,0,0,1-5.57,5,20.94,20.94,0,0,1-5.45,2.8,16.73,16.73,0,0,1-5.1.86,15.39,15.39,0,0,1-3.74-.49,11,11,0,0,1-3.64-1.65,9.07,9.07,0,0,1-2.76-3.08,9.75,9.75,0,0,1-1.09-4.81,17,17,0,0,1,1-5.94,24,24,0,0,1,2.74-5.33,27.15,27.15,0,0,1,3.86-4.5,31.63,31.63,0,0,1,4.42-3.47,23.31,23.31,0,0,1,4.38-2.24,10.91,10.91,0,0,1,3.78-.81,7.59,7.59,0,0,1,2.18.33,6,6,0,0,1,2,1,5.18,5.18,0,0,1,1.44,1.85,6.32,6.32,0,0,1,.55,2.76,8.68,8.68,0,0,1-1,4.09,14.24,14.24,0,0,1-2.7,3.53,19.85,19.85,0,0,1-3.9,2.92,29.08,29.08,0,0,1-4.65,2.2,34,34,0,0,1-4.89,1.44A24.31,24.31,0,0,1,241,235.53Zm.33-1.77a22.57,22.57,0,0,0,9.62-3.27,24.28,24.28,0,0,0,3.6-2.73,19.52,19.52,0,0,0,2.65-3,14.76,14.76,0,0,0,1.64-2.92,6.54,6.54,0,0,0,.58-2.5,2.53,2.53,0,0,0-.6-1.77,1.84,1.84,0,0,0-1.42-.66,8.35,8.35,0,0,0-4.07,1.3,21.64,21.64,0,0,0-4.52,3.57,33.31,33.31,0,0,0-4.25,5.37A30.77,30.77,0,0,0,241.3,233.76Z" transform="translate(-14.08 -49.35)"/><path class="cls-1" d="M313.71,190.87c-.31.44-.8,1.17-1.49,2.18s-1.47,2.22-2.38,3.62-1.89,3-2.94,4.65-2.11,3.45-3.17,5.26-2.08,3.64-3.08,5.49-1.88,3.63-2.65,5.32q-1.81,4-3,7.06T293.17,230a36.12,36.12,0,0,0-.95,4.21,20.86,20.86,0,0,0-.26,3.06,5.4,5.4,0,0,0,.71,3.25,2.36,2.36,0,0,0,2,.91,4.89,4.89,0,0,0,2.44-.66,11,11,0,0,0,2.26-1.69,16.25,16.25,0,0,0,2.06-2.34c.64-.88,1.25-1.75,1.81-2.63s1.08-1.71,1.54-2.51.88-1.47,1.24-2l1.48,1.15c-.31.49-.68,1.14-1.14,1.95s-1,1.69-1.54,2.65a30.36,30.36,0,0,1-2,2.9,18.73,18.73,0,0,1-2.45,2.65,12,12,0,0,1-3,2,8.08,8.08,0,0,1-5.42.51,5.4,5.4,0,0,1-1.87-.86,5.69,5.69,0,0,1-1.53-1.71,7,7,0,0,1-.86-2.78,27.29,27.29,0,0,1-6,5,11,11,0,0,1-5.51,1.71,10.3,10.3,0,0,1-2.9-.46,8.46,8.46,0,0,1-3-1.56,8.81,8.81,0,0,1-2.35-2.94,9.82,9.82,0,0,1-.94-4.54,17.76,17.76,0,0,1,.94-5.8,21.68,21.68,0,0,1,2.55-5.12,24.67,24.67,0,0,1,3.68-4.27,25.58,25.58,0,0,1,4.34-3.25,23.23,23.23,0,0,1,4.54-2.08,14.14,14.14,0,0,1,4.3-.74,10.76,10.76,0,0,1,4.19.66,9.42,9.42,0,0,1,2.31,1.32q.57-1.16,1.56-2.94t2.3-4q1.32-2.21,2.92-4.69t3.41-5c1.21-1.68,2.48-3.35,3.81-5s2.68-3.18,4.05-4.61Zm-26,44a34.27,34.27,0,0,1,1.42-7.17,69.45,69.45,0,0,1,3.72-9.52,3.8,3.8,0,0,0-1.63-1.34,5.75,5.75,0,0,0-2.36-.47,11,11,0,0,0-4.09.82,18.09,18.09,0,0,0-4,2.22,23.16,23.16,0,0,0-3.6,3.31,25.5,25.5,0,0,0-2.94,4.09,22.2,22.2,0,0,0-2,4.54,16,16,0,0,0-.72,4.67,7.88,7.88,0,0,0,1.29,4.81,4.15,4.15,0,0,0,3.48,1.73,7.33,7.33,0,0,0,2.26-.41,12.66,12.66,0,0,0,2.69-1.34,22.68,22.68,0,0,0,3.07-2.38A38.26,38.26,0,0,0,287.68,234.91Z" transform="translate(-14.08 -49.35)"/><path class="cls-1" d="M339,211c.27-.46.76-1.27,1.46-2.43s1.52-2.42,2.47-3.82,2-2.8,3.08-4.21a30.34,30.34,0,0,1,3.27-3.6l1.85,1.11c-1.18,1.95-2.38,4-3.62,6.19s-2.45,4.43-3.66,6.76h13.41l-.83,2.14H342.73q-1.85,3.7-3.47,7.36t-2.86,7a54.27,54.27,0,0,0-1.93,6.23,21.67,21.67,0,0,0-.7,5,5.13,5.13,0,0,0,1.23,3.85,4.28,4.28,0,0,0,3.05,1.17,6.53,6.53,0,0,0,3.28-1,18.62,18.62,0,0,0,3.31-2.44,30.8,30.8,0,0,0,3.09-3.25c1-1.18,1.83-2.29,2.59-3.33s1.38-1.95,1.87-2.74.79-1.26.9-1.45l1.53,1.15c-1,1.59-2.05,3.27-3.25,5.05a37.3,37.3,0,0,1-4,5,22.14,22.14,0,0,1-4.79,3.78A11,11,0,0,1,337,246a7.39,7.39,0,0,1-3.23-.66,6.3,6.3,0,0,1-2.32-1.83,7.82,7.82,0,0,1-1.42-2.77,12.14,12.14,0,0,1-.48-3.5,21.22,21.22,0,0,1,.4-3.49,45.15,45.15,0,0,1,1.33-5.37q.94-3.1,2.53-7a84.52,84.52,0,0,1,4-8.3H331l.83-2.14Z" transform="translate(-14.08 -49.35)"/><path class="cls-1" d="M376.29,233.72a1.12,1.12,0,0,0,.32,0H377a9.07,9.07,0,0,0,2.1-.23,6,6,0,0,0,1.75-.72,7.54,7.54,0,0,0,1.54-1.29,13.34,13.34,0,0,0,1.44-2l1.48,1.15a12.31,12.31,0,0,1-4.07,3.9,9.37,9.37,0,0,1-4.44,1.11,6.28,6.28,0,0,1-1.52-.16,27.4,27.4,0,0,1-3.79,5,22.37,22.37,0,0,1-4.11,3.39,16.48,16.48,0,0,1-4.15,1.91,13.72,13.72,0,0,1-3.82.6,8.82,8.82,0,0,1-3.36-.64,7.68,7.68,0,0,1-2.65-1.83,8.47,8.47,0,0,1-1.72-2.84,10.26,10.26,0,0,1-.62-3.7,14.12,14.12,0,0,1,.66-4.19,23.09,23.09,0,0,1,1.79-4.24,27.87,27.87,0,0,1,2.65-4,33.47,33.47,0,0,1,3.29-3.64,34.49,34.49,0,0,1,3.66-3,23.25,23.25,0,0,1,3.78-2.22l1.32,1.73a30.48,30.48,0,0,0-4.43,3.94,36.36,36.36,0,0,0-4.07,5.23,31.51,31.51,0,0,0-3,5.9,16.58,16.58,0,0,0-1.17,5.94,6.22,6.22,0,0,0,1.15,4,4.25,4.25,0,0,0,3.5,1.41,9.23,9.23,0,0,0,3.57-.73,16.39,16.39,0,0,0,3.46-2,23.91,23.91,0,0,0,3.25-3,45.57,45.57,0,0,0,3-3.72,7.3,7.3,0,0,1-2.1-1.87,11.6,11.6,0,0,1-1.52-2.68,16.06,16.06,0,0,1-.93-3.22,20.71,20.71,0,0,1-.31-3.54,12.54,12.54,0,0,1,.46-3.41,10.1,10.1,0,0,1,1.25-2.82,6.69,6.69,0,0,1,1.87-1.91,4.17,4.17,0,0,1,2.34-.7,3.64,3.64,0,0,1,2.06.6,4.82,4.82,0,0,1,1.52,1.64,8.79,8.79,0,0,1,.95,2.49,13.79,13.79,0,0,1,.33,3.08,19.59,19.59,0,0,1-.21,2.72,27,27,0,0,1-.59,3c-.27,1-.58,2-.95,3A14.42,14.42,0,0,1,376.29,233.72Zm-5.6-10.24a17.44,17.44,0,0,0,.21,2.59,14.49,14.49,0,0,0,.66,2.71,11.71,11.71,0,0,0,1.15,2.45,5.4,5.4,0,0,0,1.73,1.79,23.57,23.57,0,0,0,1.25-2.94c.34-1,.63-2,.86-2.9a22.38,22.38,0,0,0,.5-2.61,19.55,19.55,0,0,0,.14-2.12,11.35,11.35,0,0,0-.21-2.26,8,8,0,0,0-.55-1.79,3.31,3.31,0,0,0-.87-1.19,1.68,1.68,0,0,0-1.12-.43,2.42,2.42,0,0,0-1.53.55,4.82,4.82,0,0,0-1.19,1.48A8.41,8.41,0,0,0,371,221,11.61,11.61,0,0,0,370.69,223.48Z" transform="translate(-14.08 -49.35)"/><path class="cls-1" d="M413.41,230.47c1.43-2,2.94-3.87,4.55-5.69a48.5,48.5,0,0,1,4.87-4.86,25.22,25.22,0,0,1,5-3.39,10.8,10.8,0,0,1,4.9-1.27,5.65,5.65,0,0,1,2.42.45,4.11,4.11,0,0,1,1.5,1.15,4.18,4.18,0,0,1,.78,1.58,7.07,7.07,0,0,1,.23,1.75,8.75,8.75,0,0,1-.47,2.67,12.42,12.42,0,0,1-1.44,2.9,14.69,14.69,0,0,1-2.45,2.8,16.54,16.54,0,0,1-3.53,2.4,6.71,6.71,0,0,1,.45,2.59,7.56,7.56,0,0,1-.25,1.92c-.16.64-.34,1.28-.53,1.91s-.37,1.27-.54,1.91a8,8,0,0,0-.24,2,7.23,7.23,0,0,0,.06.95,2.69,2.69,0,0,0,.24.82,1.45,1.45,0,0,0,.58.6,2.19,2.19,0,0,0,1.09.22,3.58,3.58,0,0,0,1.89-.68,15.44,15.44,0,0,0,2.26-1.78,32.36,32.36,0,0,0,2.45-2.57c.83-1,1.65-2,2.45-3.07s1.56-2.13,2.3-3.18,1.41-2.05,2-3l1.52,1.15c-1.39,2.08-2.76,4.07-4.09,6a46,46,0,0,1-4,5,20,20,0,0,1-4,3.42,7.92,7.92,0,0,1-4.23,1.27,6.71,6.71,0,0,1-1.79-.25,4.83,4.83,0,0,1-1.68-.8,4.28,4.28,0,0,1-1.26-1.46,4.56,4.56,0,0,1-.49-2.22,10.76,10.76,0,0,1,.78-3.66c.46-1.31.81-2.42,1-3.31a12,12,0,0,0,.37-2.24c-.58.14-1.19.26-1.83.37a11,11,0,0,1-1.83.17,5.25,5.25,0,0,1-1-.11,3.08,3.08,0,0,1-1-.35,2.44,2.44,0,0,1-.76-.63,1.62,1.62,0,0,1-.31-1,2,2,0,0,1,.4-1.17,3.67,3.67,0,0,1,1.07-1,5.73,5.73,0,0,1,1.62-.68,8.53,8.53,0,0,1,2.1-.24,5.85,5.85,0,0,1,3.65,1.15,12.07,12.07,0,0,0,2.45-2.51,13.76,13.76,0,0,0,1.5-2.63,12.42,12.42,0,0,0,.74-2.28,8.31,8.31,0,0,0,.21-1.51,2.72,2.72,0,0,0-.5-1.87,1.57,1.57,0,0,0-1.19-.51,6.48,6.48,0,0,0-2.94.86,19.75,19.75,0,0,0-3.37,2.35,42.86,42.86,0,0,0-3.58,3.41q-1.83,1.93-3.57,4.07c-1.17,1.43-2.29,2.87-3.38,4.32s-2.07,2.82-3,4.11-1.55,2.65-2.2,3.82-1.18,2.2-1.62,3.05-.78,1.49-1,1.93-.38.59-.41.45l-4.07-1.07q4.85-11.06,9.83-22.12t10.48-22.37c.55-1.09,1.17-2.29,1.87-3.59s1.45-2.61,2.26-3.91,1.68-2.57,2.59-3.8a26.68,26.68,0,0,1,2.84-3.27,14,14,0,0,1,3-2.26,6.18,6.18,0,0,1,3.05-.85,3.81,3.81,0,0,1,2.61.91,3.69,3.69,0,0,1,1,2.88,19.15,19.15,0,0,1-1.46,6.59,42,42,0,0,1-4.33,8.25,63.55,63.55,0,0,1-7.18,8.82,60.67,60.67,0,0,1-10,8.28Zm7.2-15.95a62.59,62.59,0,0,0,8.57-8,58.4,58.4,0,0,0,5.92-7.87,35.5,35.5,0,0,0,3.42-7,17.77,17.77,0,0,0,1.08-5.41,1.44,1.44,0,0,0-.32-1,1.35,1.35,0,0,0-1-.37,4.68,4.68,0,0,0-3.13,1.5,22.89,22.89,0,0,0-3.64,5q-2,3.45-4.66,9.13T420.61,214.52Zm5.26,16a2,2,0,0,0-.68-.8,1.72,1.72,0,0,0-1.05-.35,4.39,4.39,0,0,0-2.09.49c-.61.33-.91.65-.91,1s.13.36.39.43a2.76,2.76,0,0,0,.72.1,7.79,7.79,0,0,0,2-.24A12,12,0,0,0,425.87,230.55Z" transform="translate(-14.08 -49.35)"/><path class="cls-1" d="M478.29,223.56a11.25,11.25,0,0,1-.61,3.6,26.1,26.1,0,0,1-1.56,3.66c-.64,1.22-1.31,2.42-2,3.6s-1.38,2.31-2,3.41a27.93,27.93,0,0,0-1.57,3.15,7.26,7.26,0,0,0-.61,2.73,1.53,1.53,0,0,0,.41,1.27,1.39,1.39,0,0,0,.9.33,5.86,5.86,0,0,0,3.5-1.54,29.07,29.07,0,0,0,3.92-3.88c1.33-1.57,2.66-3.27,4-5.1s2.51-3.58,3.58-5.22l1.48,1.15c-.22.33-.62,1-1.19,1.95s-1.29,2.08-2.14,3.33-1.8,2.55-2.86,3.91a33.73,33.73,0,0,1-3.39,3.74,20.44,20.44,0,0,1-3.72,2.81,7.62,7.62,0,0,1-3.85,1.11,5.18,5.18,0,0,1-2-.37,4.46,4.46,0,0,1-1.54-1,5,5,0,0,1-1-1.55,4.69,4.69,0,0,1-.37-1.87,9.71,9.71,0,0,1,.72-3.47,32,32,0,0,1,1.79-3.85q1.06-2,2.34-4t2.35-3.81c.71-1.2,1.3-2.32,1.78-3.35a6.45,6.45,0,0,0,.72-2.65,3.32,3.32,0,0,0-.68-2.14,2.3,2.3,0,0,0-1.91-.86,5.9,5.9,0,0,0-3,1.09A24.11,24.11,0,0,0,465.8,223a62.43,62.43,0,0,0-4.67,5.16q-2.53,3.06-5.49,7c-1.13,1.51-2.22,3-3.29,4.36-.47.61-.93,1.22-1.4,1.85s-.93,1.26-1.4,1.87l-1.31,1.77c-.41.56-.78,1.05-1.11,1.46l-3.62-1.48,4.81-6.62c.69-.93,1.38-1.93,2.1-3s1.42-2.17,2.11-3.31,1.37-2.28,2-3.43,1.22-2.28,1.77-3.37a26,26,0,0,0,1.64-4.1,10.29,10.29,0,0,0,.45-2.61A1.9,1.9,0,0,0,458,217a1.72,1.72,0,0,0-1.15-.35,3,3,0,0,0-1.79.81,15.27,15.27,0,0,0-2.07,2,31.85,31.85,0,0,0-2.16,2.84c-.73,1.06-1.42,2.1-2.08,3.14l-1.85,3c-.57.94-1.05,1.69-1.44,2.27L444,229.57q2.1-3.3,3.81-6a47.94,47.94,0,0,1,3.29-4.71,16.67,16.67,0,0,1,3.08-3.06,5.3,5.3,0,0,1,3.19-1.09,4.28,4.28,0,0,1,3.22,1.46,5.26,5.26,0,0,1,1,1.75,6.92,6.92,0,0,1,.37,2.38,10.14,10.14,0,0,1-.25,2.22,32.24,32.24,0,0,1,3.38-2.92,23.07,23.07,0,0,1,2.87-1.83,11.94,11.94,0,0,1,2.43-1,8.18,8.18,0,0,1,2-.29,6.89,6.89,0,0,1,1.81.29,5.05,5.05,0,0,1,1.94,1.07,6.37,6.37,0,0,1,1.54,2.16A8.55,8.55,0,0,1,478.29,223.56Z" transform="translate(-14.08 -49.35)"/><path class="cls-1" d="M509.38,233.72a1.24,1.24,0,0,0,.33,0h.37a9.13,9.13,0,0,0,2.1-.23,5.82,5.82,0,0,0,1.74-.72,7.58,7.58,0,0,0,1.55-1.29,12.63,12.63,0,0,0,1.43-2l1.49,1.15a12.33,12.33,0,0,1-4.08,3.9,9.31,9.31,0,0,1-4.44,1.11,6.33,6.33,0,0,1-1.52-.16,27.83,27.83,0,0,1-3.78,5,22.37,22.37,0,0,1-4.11,3.39,16.64,16.64,0,0,1-4.15,1.91,13.79,13.79,0,0,1-3.83.6,8.8,8.8,0,0,1-3.35-.64,7.58,7.58,0,0,1-2.65-1.83,8.5,8.5,0,0,1-1.73-2.84,10.48,10.48,0,0,1-.62-3.7,14.12,14.12,0,0,1,.66-4.19,23.8,23.8,0,0,1,1.79-4.24,28.72,28.72,0,0,1,2.65-4,34.53,34.53,0,0,1,3.29-3.64,35.52,35.52,0,0,1,3.66-3,23.25,23.25,0,0,1,3.78-2.22l1.32,1.73a30.43,30.43,0,0,0-4.42,3.94,36.36,36.36,0,0,0-4.07,5.23,31.51,31.51,0,0,0-3,5.9,16.58,16.58,0,0,0-1.17,5.94,6.22,6.22,0,0,0,1.15,4,4.23,4.23,0,0,0,3.49,1.41,9.24,9.24,0,0,0,3.58-.73,16.08,16.08,0,0,0,3.45-2,22.79,22.79,0,0,0,3.25-3,43.51,43.51,0,0,0,3-3.72,7.39,7.39,0,0,1-2.09-1.87,11.27,11.27,0,0,1-1.53-2.68A15.42,15.42,0,0,1,502,227a19.75,19.75,0,0,1-.31-3.54,12.54,12.54,0,0,1,.45-3.41,9.83,9.83,0,0,1,1.26-2.82,6.44,6.44,0,0,1,1.87-1.91,4.15,4.15,0,0,1,2.34-.7,3.66,3.66,0,0,1,2.06.6,4.82,4.82,0,0,1,1.52,1.64,8.79,8.79,0,0,1,.94,2.49,13.79,13.79,0,0,1,.33,3.08,21.13,21.13,0,0,1-.2,2.72,27.11,27.11,0,0,1-.6,3,26.78,26.78,0,0,1-.95,3A13.8,13.8,0,0,1,509.38,233.72Zm-5.59-10.24a18.8,18.8,0,0,0,.2,2.59,15.32,15.32,0,0,0,.66,2.71,12.24,12.24,0,0,0,1.15,2.45,5.5,5.5,0,0,0,1.73,1.79,22.16,22.16,0,0,0,1.25-2.94c.35-1,.63-2,.87-2.9a22.24,22.24,0,0,0,.49-2.61,17.3,17.3,0,0,0,.14-2.12,11.38,11.38,0,0,0-.2-2.26,8,8,0,0,0-.56-1.79,3.42,3.42,0,0,0-.86-1.19,1.7,1.7,0,0,0-1.13-.43,2.37,2.37,0,0,0-1.52.55,4.67,4.67,0,0,0-1.19,1.48,8,8,0,0,0-.76,2.14A11.61,11.61,0,0,0,503.79,223.48Z" transform="translate(-14.08 -49.35)"/><path class="cls-1" d="M528.29,217.56a71.42,71.42,0,0,0-4,6.8,64.62,64.62,0,0,0-2.72,6,34.59,34.59,0,0,0-1.56,5,18.64,18.64,0,0,0-.49,3.91c0,2.52.72,3.78,2.17,3.78a5.27,5.27,0,0,0,3-1.31,22.1,22.1,0,0,0,3.47-3.5,40.63,40.63,0,0,0,3.45-5,46.27,46.27,0,0,0,3-5.88l0,0q1.19-3,2.61-5.8a57.33,57.33,0,0,1,2.9-5.18l1.85,1.15q-.71,1.94-1.69,4.69c-.66,1.83-1.28,3.76-1.87,5.77s-1.1,4-1.52,6a26,26,0,0,0-.64,5.42c0,.47,0,.92.06,1.34a5,5,0,0,0,.23,1.13,1.71,1.71,0,0,0,.49.78,1.23,1.23,0,0,0,.83.29,5.82,5.82,0,0,0,3.18-1.23,21.86,21.86,0,0,0,3.58-3.19,42,42,0,0,0,6.15-8.9,14.26,14.26,0,0,1-1.65-6.91,14.47,14.47,0,0,1,.39-3.62,8.6,8.6,0,0,1,1-2.4,3.67,3.67,0,0,1,1.27-1.32,2.67,2.67,0,0,1,1.28-.39,2.33,2.33,0,0,1,1.87,1.07,6.69,6.69,0,0,1,.8,3.82,17,17,0,0,1-.7,4.51,36.68,36.68,0,0,1-1.93,5.24,6,6,0,0,0,1.81,1.73,5,5,0,0,0,2.5.69l-.36,2a6.81,6.81,0,0,1-2.72-.72,7.47,7.47,0,0,1-2.18-1.71,39.36,39.36,0,0,1-3.14,5,30.67,30.67,0,0,1-3.83,4.34,19.27,19.27,0,0,1-4.25,3,9.63,9.63,0,0,1-4.48,1.15,4.3,4.3,0,0,1-3.29-1.48,5,5,0,0,1-1-1.89,8.79,8.79,0,0,1-.37-2.71c0-.39,0-.8,0-1.24a13,13,0,0,1,.16-1.35c-.79,1.23-1.61,2.38-2.44,3.45a20.23,20.23,0,0,1-2.57,2.75,11.5,11.5,0,0,1-2.74,1.81,6.77,6.77,0,0,1-2.89.66,6.32,6.32,0,0,1-2.76-.55,4.9,4.9,0,0,1-1.89-1.57,6.83,6.83,0,0,1-1.09-2.36,12,12,0,0,1-.35-3,19.29,19.29,0,0,1,.93-5.8,31.44,31.44,0,0,1,2.48-5.8,35.68,35.68,0,0,1,3.6-5.34,36.84,36.84,0,0,1,4.25-4.44ZM552,227.18a20.8,20.8,0,0,0,1.19-3.74,17.69,17.69,0,0,0,.41-3.7,6.18,6.18,0,0,0-.21-1.93,1.56,1.56,0,0,0-.32-.66,1.13,1.13,0,0,0-.31.22,3,3,0,0,0-.6.85,7.61,7.61,0,0,0-.6,1.7,12.76,12.76,0,0,0-.26,2.82,15,15,0,0,0,.18,2.34A12.89,12.89,0,0,0,552,227.18Z" transform="translate(-14.08 -49.35)"/><path class="cls-1" d="M615.83,217.56q-.54,1.06-1.5,2.79c-.64,1.16-1.34,2.42-2.08,3.81S610.77,227,610,228.5s-1.44,3-2,4.42a39.42,39.42,0,0,0-1.52,4.07,11.11,11.11,0,0,0-.6,3.22q0,1.32.51,1.71a2.17,2.17,0,0,0,1.34.39,5,5,0,0,0,2.45-.7,13.12,13.12,0,0,0,2.46-1.81,23.89,23.89,0,0,0,2.37-2.51c.76-.93,1.48-1.87,2.16-2.81s1.28-1.85,1.83-2.72l1.39-2.19,1.48,1.15c-.46.87-1,1.82-1.64,2.83s-1.32,2-2.08,3.07a37.81,37.81,0,0,1-2.44,3,21.31,21.31,0,0,1-2.78,2.55,13.1,13.1,0,0,1-3.06,1.76,8.59,8.59,0,0,1-3.29.66,4.29,4.29,0,0,1-3.62-1.48,6,6,0,0,1-1.15-3.82c0-.11,0-.35,0-.72a4.55,4.55,0,0,1,.1-.88,36,36,0,0,1-3.92,4.27,20.25,20.25,0,0,1-3.62,2.67A13.19,13.19,0,0,1,591,246a13.37,13.37,0,0,1-3.11.39,8.41,8.41,0,0,1-2.94-.51,7.1,7.1,0,0,1-2.42-1.5,7,7,0,0,1-1.65-2.43,8.6,8.6,0,0,1-.6-3.33,16.67,16.67,0,0,1,1-5.37,24,24,0,0,1,3.72-6.51,30.85,30.85,0,0,1,4.71-5.06,28.25,28.25,0,0,1,4.81-3.31,20.23,20.23,0,0,1,4.5-1.79,16.29,16.29,0,0,1,3.83-.53,10.63,10.63,0,0,1,5.71,1.25,5.36,5.36,0,0,1,2.35,3.85c.55-.69,1.12-1.37,1.72-2.06s1.22-1.38,1.85-2.1Zm-12.62,15.62c.35-.57.79-1.31,1.31-2.2s1.07-1.81,1.65-2.75,1.13-1.86,1.68-2.74,1-1.61,1.44-2.22a10.44,10.44,0,0,0-.1-1.19,4.6,4.6,0,0,0-.56-1.66A4,4,0,0,0,607.2,219a5.22,5.22,0,0,0-2.76-.62,12.11,12.11,0,0,0-2.86.39,15.57,15.57,0,0,0-3.37,1.32,22.06,22.06,0,0,0-3.68,2.44,27.6,27.6,0,0,0-3.78,3.79,30,30,0,0,0-4.38,6.84,15.29,15.29,0,0,0-1.54,6.19,5.45,5.45,0,0,0,1.07,3.62,3.73,3.73,0,0,0,3,1.27,9.11,9.11,0,0,0,4.24-1,16.61,16.61,0,0,0,3.7-2.61,33.06,33.06,0,0,0,3.29-3.55C601.21,235.73,602.22,234.44,603.21,233.18Z" transform="translate(-14.08 -49.35)"/><path class="cls-1" d="M643.79,226.24a9.56,9.56,0,0,1-2.69-1.05,6.75,6.75,0,0,1-1.83-1.55,5.83,5.83,0,0,1-1-1.82,6,6,0,0,1-.33-1.92,4.23,4.23,0,0,1,1.15-3.18,3.93,3.93,0,0,1,2.88-1.13,3.22,3.22,0,0,1,2,.59,4.77,4.77,0,0,1,1.36,1.58,7.63,7.63,0,0,1,.78,2.29,13.87,13.87,0,0,1,.25,2.69c0,.63,0,1.25-.08,1.87a15.41,15.41,0,0,1-.29,1.87,32,32,0,0,1-2.9,8,28.72,28.72,0,0,1-4.32,6.17,18.37,18.37,0,0,1-5.12,3.94,11.63,11.63,0,0,1-5.3,1.38,11.13,11.13,0,0,1-3.35-.49,7.05,7.05,0,0,1-2.8-1.65,7.83,7.83,0,0,1-1.91-3,13.45,13.45,0,0,1-.7-4.62,30.67,30.67,0,0,1,1.34-8.14A64.06,64.06,0,0,1,625.41,217a177,177,0,0,1,9.25-16q2-3,4.15-5.88a57.15,57.15,0,0,1,4.38-5.14,24.81,24.81,0,0,1,4.36-3.64,7.68,7.68,0,0,1,4.09-1.38,7.57,7.57,0,0,1,.89.09,3.7,3.7,0,0,1,1.29.43,3.37,3.37,0,0,1,1.17,1.07,3.31,3.31,0,0,1,.52,2,12.44,12.44,0,0,1-.8,3.85,32.07,32.07,0,0,1-2.39,5.13,62.13,62.13,0,0,1-3.9,6,66.63,66.63,0,0,1-5.35,6.39,76.79,76.79,0,0,1-6.7,6.29,67.78,67.78,0,0,1-8,5.76c-1,2.08-1.76,4-2.4,5.65s-1.16,3.21-1.55,4.57a33.17,33.17,0,0,0-.82,3.59,18.35,18.35,0,0,0-.24,2.72,7,7,0,0,0,.43,2.65,3.91,3.91,0,0,0,1.17,1.64,4.42,4.42,0,0,0,1.69.85,7.93,7.93,0,0,0,2,.24,7.79,7.79,0,0,0,3.76-1,16,16,0,0,0,3.47-2.57,23.89,23.89,0,0,0,3-3.56,37,37,0,0,0,2.4-3.93,31.79,31.79,0,0,0,1.69-3.7A14.28,14.28,0,0,0,643.79,226.24Zm-13.69-8a67.11,67.11,0,0,0,7-5.47,76.63,76.63,0,0,0,5.77-5.78,65.69,65.69,0,0,0,4.57-5.67,53.59,53.59,0,0,0,3.29-5.2,32.06,32.06,0,0,0,2-4.34,9.91,9.91,0,0,0,.68-3.11c0-.71-.26-1.07-.78-1.07a6.29,6.29,0,0,0-3.56,1.61,28.67,28.67,0,0,0-4.81,5.22q-2.73,3.61-6.25,9.46T630.1,218.22Zm14,5.88c0-.25,0-.5.06-.74s0-.48,0-.7a9.37,9.37,0,0,0-.57-3.58c-.39-.9-.94-1.36-1.65-1.36a2.3,2.3,0,0,0-.55.07,1.5,1.5,0,0,0-.62.28,1.76,1.76,0,0,0-.52.64,2.49,2.49,0,0,0-.2,1.07,3.61,3.61,0,0,0,1.17,2.77A6.57,6.57,0,0,0,644.08,224.1Z" transform="translate(-14.08 -49.35)"/><path class="cls-1" d="M673.11,233.72a1.24,1.24,0,0,0,.33,0h.37a9,9,0,0,0,2.09-.23,5.87,5.87,0,0,0,1.75-.72,7.28,7.28,0,0,0,1.54-1.29,12.65,12.65,0,0,0,1.44-2l1.48,1.15a12.22,12.22,0,0,1-4.07,3.9,9.37,9.37,0,0,1-4.44,1.11,6.28,6.28,0,0,1-1.52-.16,27.83,27.83,0,0,1-3.78,5,22.75,22.75,0,0,1-4.12,3.39,16.33,16.33,0,0,1-4.15,1.91,13.67,13.67,0,0,1-3.82.6,8.73,8.73,0,0,1-3.35-.64,7.49,7.49,0,0,1-2.65-1.83,8.34,8.34,0,0,1-1.73-2.84,10.48,10.48,0,0,1-.62-3.7,14.12,14.12,0,0,1,.66-4.19,23.09,23.09,0,0,1,1.79-4.24,28.72,28.72,0,0,1,2.65-4,33.47,33.47,0,0,1,3.29-3.64,35.52,35.52,0,0,1,3.66-3,23.25,23.25,0,0,1,3.78-2.22l1.32,1.73a29.92,29.92,0,0,0-4.42,3.94,35.66,35.66,0,0,0-4.07,5.23,32.17,32.17,0,0,0-3,5.9,16.58,16.58,0,0,0-1.17,5.94,6.28,6.28,0,0,0,1.15,4,4.26,4.26,0,0,0,3.5,1.41,9.24,9.24,0,0,0,3.58-.73,16.33,16.33,0,0,0,3.45-2,23.34,23.34,0,0,0,3.25-3,43.51,43.51,0,0,0,3-3.72,7.3,7.3,0,0,1-2.1-1.87,11.6,11.6,0,0,1-1.52-2.68,16.06,16.06,0,0,1-.93-3.22,20.71,20.71,0,0,1-.3-3.54,12.54,12.54,0,0,1,.45-3.41,10.1,10.1,0,0,1,1.25-2.82,6.69,6.69,0,0,1,1.87-1.91,4.2,4.2,0,0,1,2.35-.7,3.63,3.63,0,0,1,2.05.6,4.73,4.73,0,0,1,1.52,1.64,8.5,8.5,0,0,1,1,2.49,13.79,13.79,0,0,1,.33,3.08,19.59,19.59,0,0,1-.21,2.72,24.9,24.9,0,0,1-.59,3,29.08,29.08,0,0,1-1,3A14.42,14.42,0,0,1,673.11,233.72Zm-5.6-10.24a17.44,17.44,0,0,0,.21,2.59,15.32,15.32,0,0,0,.66,2.71,11.71,11.71,0,0,0,1.15,2.45,5.5,5.5,0,0,0,1.73,1.79,22.16,22.16,0,0,0,1.25-2.94c.34-1,.63-2,.86-2.9a20.47,20.47,0,0,0,.5-2.61,19.55,19.55,0,0,0,.14-2.12,12.18,12.18,0,0,0-.2-2.26,8.58,8.58,0,0,0-.56-1.79,3.42,3.42,0,0,0-.86-1.19,1.72,1.72,0,0,0-1.13-.43,2.37,2.37,0,0,0-1.52.55,4.7,4.7,0,0,0-1.2,1.48,8.41,8.41,0,0,0-.76,2.14A11.61,11.61,0,0,0,667.51,223.48Z" transform="translate(-14.08 -49.35)"/><path class="cls-1" d="M699.79,235.94q-1.89,2.22-3.74,4.09a30,30,0,0,1-3.68,3.21,17.66,17.66,0,0,1-3.64,2.09,9.34,9.34,0,0,1-3.66.76,6.92,6.92,0,0,1-2.82-.55,6.47,6.47,0,0,1-2.17-1.56,6.9,6.9,0,0,1-1.42-2.47,10.11,10.11,0,0,1-.5-3.27,15,15,0,0,1,1.26-5.84,34.21,34.21,0,0,1,3.16-5.84,47.51,47.51,0,0,1,4.24-5.38q2.32-2.55,4.42-4.53l1.77,1.24c-1,1.45-2.09,3.1-3.31,4.93s-2.37,3.74-3.46,5.7a45.47,45.47,0,0,0-2.73,5.88,15.48,15.48,0,0,0-1.11,5.44,6,6,0,0,0,.64,2.88,2.5,2.5,0,0,0,2.44,1.19,8.05,8.05,0,0,0,4.34-1.56,31,31,0,0,0,4.85-4.07,68.07,68.07,0,0,0,5-5.65q2.49-3.15,4.71-6.35t4-6.13c1.22-2,2.21-3.6,3-5l3,1.48q-2.39,4.69-4.59,8.74c-1.46,2.7-2.77,5.13-3.9,7.28s-2,4-2.72,5.61a10.48,10.48,0,0,0-1,3.78,1.72,1.72,0,0,0,.24.95.88.88,0,0,0,.78.37,5.51,5.51,0,0,0,3.36-1.32,26.49,26.49,0,0,0,3.7-3.41,55.24,55.24,0,0,0,3.65-4.5c1.2-1.63,2.27-3.16,3.23-4.58l1.48,1.15-1,1.68c-.53.85-1.17,1.83-1.94,2.92s-1.64,2.25-2.63,3.46a34,34,0,0,1-3.12,3.31,17.51,17.51,0,0,1-3.42,2.46,7.18,7.18,0,0,1-3.49,1,4.65,4.65,0,0,1-1.91-.37,4.21,4.21,0,0,1-1.42-1,4.47,4.47,0,0,1-.91-1.44,4.58,4.58,0,0,1-.33-1.72,9,9,0,0,1,.35-2.35A18.7,18.7,0,0,1,699.79,235.94Z" transform="translate(-14.08 -49.35)"/><path class="cls-1" d="M725.49,211c.27-.46.76-1.27,1.46-2.43s1.52-2.42,2.47-3.82,2-2.8,3.08-4.21a30.34,30.34,0,0,1,3.27-3.6l1.85,1.11q-1.77,2.92-3.62,6.19T730.34,211h13.4l-.82,2.14H729.23q-1.85,3.7-3.47,7.36t-2.86,7A54.27,54.27,0,0,0,721,233.7a21.67,21.67,0,0,0-.7,5,5.13,5.13,0,0,0,1.23,3.85,4.25,4.25,0,0,0,3,1.17,6.53,6.53,0,0,0,3.29-1,18.62,18.62,0,0,0,3.31-2.44,31.86,31.86,0,0,0,3.09-3.25c1-1.18,1.83-2.29,2.59-3.33s1.37-1.95,1.87-2.74.79-1.26.9-1.45l1.52,1.15q-1.44,2.39-3.25,5.05a36.46,36.46,0,0,1-4,5,22.14,22.14,0,0,1-4.79,3.78,11,11,0,0,1-5.6,1.5,7.35,7.35,0,0,1-3.22-.66,6.42,6.42,0,0,1-2.33-1.83,7.8,7.8,0,0,1-1.41-2.77,12.14,12.14,0,0,1-.48-3.5,22.12,22.12,0,0,1,.39-3.49,45.41,45.41,0,0,1,1.34-5.37q.94-3.1,2.53-7a82.3,82.3,0,0,1,4-8.3h-6.83l.82-2.14Z" transform="translate(-14.08 -49.35)"/><path class="cls-1" d="M144.82,409.31a40.22,40.22,0,0,0,6.05,3.91,49,49,0,0,0,9.58,3.83,45.3,45.3,0,0,0,12.87,1.69,57.5,57.5,0,0,0,22.84-4.6A81.78,81.78,0,0,0,216,402a100.39,100.39,0,0,0,16.4-17.16,128.23,128.23,0,0,0,12.34-19.77,113.55,113.55,0,0,0,7.82-19.93,66.08,66.08,0,0,0,2.75-17.62,43.75,43.75,0,0,0-2.75-16.24A31.58,31.58,0,0,0,245.12,300a29.63,29.63,0,0,0-11-6.59,42.93,42.93,0,0,0-13.72-2.14,85.15,85.15,0,0,0-28.89,5.13,130.62,130.62,0,0,0-27.81,14,177.46,177.46,0,0,0-25.9,20.92,246.28,246.28,0,0,0-23.14,25.82,262.2,262.2,0,0,0-19.47,28.73,257.54,257.54,0,0,0-14.94,29.66,187.8,187.8,0,0,0-9.58,28.58,108.54,108.54,0,0,0-3.37,25.52,81.24,81.24,0,0,0,3.91,25.44A58.7,58.7,0,0,0,82.9,515.9a55,55,0,0,0,19.54,14q11.73,5.13,27.36,5.14a105.7,105.7,0,0,0,29-4.29,114.65,114.65,0,0,0,30-13.8,162.16,162.16,0,0,0,29.51-24.6,216.65,216.65,0,0,0,27.89-36.7l5.52,4.29q-14.41,23.44-30,39.39A170.7,170.7,0,0,1,190.33,525,118.9,118.9,0,0,1,159.53,539a107.71,107.71,0,0,1-28.81,4.22q-19.62,0-34.64-7A76.27,76.27,0,0,1,71,517.89,77.17,77.17,0,0,1,55.7,492.07a87.79,87.79,0,0,1-5.13-29.5,114.54,114.54,0,0,1,3.6-27.44,183.38,183.38,0,0,1,10.19-29.57,243.21,243.21,0,0,1,15.86-30,251.67,251.67,0,0,1,20.69-28.74,233.89,233.89,0,0,1,24.75-25.51,181.64,181.64,0,0,1,28-20.46,147.73,147.73,0,0,1,30.19-13.64,103.21,103.21,0,0,1,31.65-5A65.89,65.89,0,0,1,234.85,285a44.31,44.31,0,0,1,16.33,9,43,43,0,0,1,11.18,15.71q4.14,9.57,4.14,23.06a78,78,0,0,1-2.76,19.62,110.74,110.74,0,0,1-8,21.22,127.66,127.66,0,0,1-12.88,20.62,97.69,97.69,0,0,1-17.16,17.54A83.79,83.79,0,0,1,204.51,424a66.11,66.11,0,0,1-24.6,4.59q-13.95,0-24.29-4.67a64.34,64.34,0,0,1-17.7-11.57l4.6-5.06A15.33,15.33,0,0,0,144.82,409.31Z" transform="translate(-14.08 -49.35)"/><path class="cls-1" d="M268.49,452.91a218.77,218.77,0,0,1,16.86-20.3,144.35,144.35,0,0,1,17.62-16,86.37,86.37,0,0,1,17.55-10.5,42.11,42.11,0,0,1,16.78-3.75,21.6,21.6,0,0,1,9.12,1.68,15.1,15.1,0,0,1,5.67,4.37,16.56,16.56,0,0,1,2.92,5.9,25.88,25.88,0,0,1,.84,6.44,35.14,35.14,0,0,1-2.3,11.88,123.48,123.48,0,0,1-5.75,13.25q-3.45,6.9-7.43,14.1t-7.43,14.1a117.27,117.27,0,0,0-5.75,13.41,36.86,36.86,0,0,0-2.3,12.18,13.57,13.57,0,0,0,1.61,6.52q1.61,3,5.75,3,4.89,0,10.88-5a88.18,88.18,0,0,0,12.18-12.72q6.21-7.72,12.42-17.24t11.57-18.54l5.51,4.29a81.09,81.09,0,0,0-4.59,7.43q-2.93,5.14-6.82,11.5T364.66,492a106.5,106.5,0,0,1-10.27,12.34A57,57,0,0,1,343,513.52a23.22,23.22,0,0,1-12.1,3.6,35.44,35.44,0,0,1-8-.91,18.75,18.75,0,0,1-7.21-3.38,17.69,17.69,0,0,1-5.21-6.66,25.05,25.05,0,0,1-2-10.65A48.78,48.78,0,0,1,311,480.27a116.31,116.31,0,0,1,6.28-15.33q3.76-7.59,8.2-14.71t8.2-13.41q3.75-6.29,6.29-11.42t2.52-8.66q0-6.27-6.13-6.28-8.73,0-18.46,5.75a112.36,112.36,0,0,0-19.54,14.94,228.27,228.27,0,0,0-19.31,20.61q-9.51,11.42-17.78,22.76L238,518.35l-13.95-5.52q19.47-42.44,37.47-83.9t37-81.92q2.91-6.27,6.82-13.64t8.43-14.71a161.6,161.6,0,0,1,9.73-14.1,102.71,102.71,0,0,1,10.73-11.95,52.82,52.82,0,0,1,11.42-8.35,25,25,0,0,1,11.87-3.15q6.75,0,10.5,3.76t3.76,10.65q0,7.2-3.83,16.32a130.88,130.88,0,0,1-10.27,19.24,248.4,248.4,0,0,1-14.95,20.84q-8.5,10.72-17.93,21.3t-19.08,20.46q-9.64,9.88-18.54,18.31ZM358.3,289.24a18.29,18.29,0,0,0-12.64,5.28q-5.76,5.3-12.49,17.4t-15.48,31.57q-8.74,19.45-21.31,47.81a389.11,389.11,0,0,0,29.51-31.8A347.05,347.05,0,0,0,347,331.38a159.28,159.28,0,0,0,12.64-22.14q4.22-9.44,4.22-14a6.06,6.06,0,0,0-1.54-4.36A5.22,5.22,0,0,0,358.3,289.24Z" transform="translate(-14.08 -49.35)"/><path class="cls-1" d="M419.45,410.92q-2,4-5.6,10.5t-7.73,14.25q-4.14,7.74-8.43,16.24T390,468.47a147.2,147.2,0,0,0-5.6,15.09,42.35,42.35,0,0,0-2.14,12q0,4.44,1.84,6.05a7.66,7.66,0,0,0,5.21,1.61A21.31,21.31,0,0,0,401.52,499a67.33,67.33,0,0,0,11.87-10.8A136.45,136.45,0,0,0,425,473q5.67-8.58,11.35-17.32l5.51,4.29q-4.44,8-10,17a119.45,119.45,0,0,1-12.49,16.78,67.09,67.09,0,0,1-15.17,12.8A34,34,0,0,1,386,511.61q-9.19,0-14.1-5.52T367,491.84a54.83,54.83,0,0,1,4.75-21.46,143.12,143.12,0,0,1,11.87-22.14,229.93,229.93,0,0,1,15.48-21.08q8.36-10.11,15.4-18.39Zm28.66-34a15.12,15.12,0,0,1-1.54,6.36,23.26,23.26,0,0,1-3.9,5.9,22.15,22.15,0,0,1-5.29,4.29,11.57,11.57,0,0,1-5.83,1.69,4.6,4.6,0,0,1-4-1.92,7.8,7.8,0,0,1-1.38-4.67,22.8,22.8,0,0,1,.92-5.83,24.1,24.1,0,0,1,2.76-6.36,20.54,20.54,0,0,1,4.44-5.13,9.15,9.15,0,0,1,6-2.15,7.32,7.32,0,0,1,5.52,2.45A7.74,7.74,0,0,1,448.11,376.9Z" transform="translate(-14.08 -49.35)"/><path class="cls-1" d="M564.27,433.29A41.56,41.56,0,0,1,562,446.7a96.81,96.81,0,0,1-5.82,13.64q-3.52,6.82-7.51,13.41t-7.51,12.72a99.43,99.43,0,0,0-5.82,11.73,27.12,27.12,0,0,0-2.3,10.19q0,3.53,1.53,4.75a5.27,5.27,0,0,0,3.37,1.23q5.83,0,13-5.75a108.44,108.44,0,0,0,14.64-14.48q7.42-8.75,14.78-19t13.34-19.46l5.51,4.29q-1.22,1.85-4.44,7.28t-8,12.41q-4.75,7-10.65,14.56a122.51,122.51,0,0,1-12.64,14,76,76,0,0,1-13.87,10.5,28.29,28.29,0,0,1-14.33,4.14,19.62,19.62,0,0,1-7.51-1.38,16.59,16.59,0,0,1-5.75-3.84,18.4,18.4,0,0,1-3.75-5.74,17.89,17.89,0,0,1-1.38-7,36.28,36.28,0,0,1,2.68-12.95,123.43,123.43,0,0,1,6.67-14.33q4-7.35,8.73-14.78t8.74-14.18q4-6.74,6.66-12.49a24.19,24.19,0,0,0,2.69-9.88,12.52,12.52,0,0,0-2.53-8,8.54,8.54,0,0,0-7.13-3.22q-4.9,0-11.34,4.06A90.24,90.24,0,0,0,517.68,431a250.6,250.6,0,0,0-17.39,19.23q-9.42,11.41-20.46,26-6.29,8.44-12.26,16.25-2.61,3.38-5.21,6.9t-5.21,7c-1.74,2.3-3.37,4.5-4.91,6.59s-2.91,3.91-4.13,5.44l-13.49-5.52,17.93-24.67q3.82-5.21,7.82-11.19t7.89-12.34q3.9-6.35,7.43-12.79t6.59-12.57A95.85,95.85,0,0,0,488.41,424a38.5,38.5,0,0,0,1.69-9.73q0-4.14-1.53-5.44a6.46,6.46,0,0,0-4.3-1.3c-1.94,0-4.16,1-6.66,3a56.58,56.58,0,0,0-7.74,7.66,130.37,130.37,0,0,0-8.05,10.57q-4.06,5.91-7.74,11.73t-6.89,11c-2.15,3.48-3.94,6.28-5.37,8.43l-5.51-4.29q7.81-12.26,14.17-22.45a185.22,185.22,0,0,1,12.26-17.55,61.85,61.85,0,0,1,11.5-11.42,19.88,19.88,0,0,1,11.87-4.06,16.07,16.07,0,0,1,6.52,1.38,15.88,15.88,0,0,1,5.51,4.06,19.73,19.73,0,0,1,3.76,6.52,26.12,26.12,0,0,1,1.38,8.88,39.69,39.69,0,0,1-.92,8.28,120.18,120.18,0,0,1,12.57-10.88,81.32,81.32,0,0,1,10.72-6.82,44.31,44.31,0,0,1,9.05-3.6,29.87,29.87,0,0,1,7.5-1.07A25.31,25.31,0,0,1,549,408a18.81,18.81,0,0,1,7.2,4A23.62,23.62,0,0,1,561.9,420Q564.27,425.17,564.27,433.29Z" transform="translate(-14.08 -49.35)"/><path class="cls-1" d="M715.53,410.92q-2,4-5.59,10.42t-7.74,14.18q-4.14,7.74-8.35,16.16t-7.66,16.48a157.51,157.51,0,0,0-5.67,15.17,41.51,41.51,0,0,0-2.23,12c0,3.28.64,5.39,1.92,6.36a8,8,0,0,0,5,1.46,18.68,18.68,0,0,0,9.12-2.61,48.77,48.77,0,0,0,9.19-6.74,90.22,90.22,0,0,0,8.81-9.35q4.29-5.21,8.05-10.5t6.82-10.11l5.21-8.2,5.52,4.29q-2.61,4.91-6.13,10.57T724,482a132.4,132.4,0,0,1-9.12,11.11,78.41,78.41,0,0,1-10.34,9.51,51.2,51.2,0,0,1-11.42,6.59,32.12,32.12,0,0,1-12.26,2.45q-9.2,0-13.49-5.52t-4.29-14.25c0-.41,0-1.31.08-2.68a16.29,16.29,0,0,1,.38-3.3A132.38,132.38,0,0,1,649,501.8a77.45,77.45,0,0,1-13.49,10,48,48,0,0,1-24.14,6.59,31.26,31.26,0,0,1-11-1.91,26.79,26.79,0,0,1-9-5.6,25.75,25.75,0,0,1-6.13-9A32.28,32.28,0,0,1,583,489.38q0-8.73,3.91-20t13.87-24.29a113.4,113.4,0,0,1,17.54-18.85,103.63,103.63,0,0,1,17.94-12.34A74.53,74.53,0,0,1,653,407.24a59.32,59.32,0,0,1,14.25-2q14.1,0,21.3,4.67t8.74,14.33q3.06-3.83,6.43-7.66l6.9-7.82Zm-47,58.24q2-3.23,4.9-8.2t6.13-10.27q3.21-5.29,6.28-10.19c2.05-3.27,3.83-6,5.37-8.28a39.65,39.65,0,0,0-.39-4.44,17.63,17.63,0,0,0-2.07-6.21,14.72,14.72,0,0,0-5.36-5.44q-3.68-2.29-10.27-2.3a45,45,0,0,0-10.65,1.46,57.54,57.54,0,0,0-12.56,4.9,82.71,82.71,0,0,0-13.72,9.12,101.87,101.87,0,0,0-14.1,14.1,112,112,0,0,0-16.32,25.52Q600,481.73,600,492q0,8.73,4,13.49t11.35,4.75a34.14,34.14,0,0,0,15.78-3.76,60.57,60.57,0,0,0,13.79-9.73,120.16,120.16,0,0,0,12.26-13.26Q663,476.21,668.49,469.16Z" transform="translate(-14.08 -49.35)"/></svg>